<?xml version="1.0" encoding="utf-8"?>
<!-- Generator: Adobe Illustrator 20.0.0, SVG Export Plug-In . SVG Version: 6.00 Build 0)  -->
<svg version="1.1" id="Layer_1" xmlns="http://www.w3.org/2000/svg" xmlns:xlink="http://www.w3.org/1999/xlink" x="0px" y="0px"
	 viewBox="0 0 900 66.7" style="enable-background:new 0 0 900 66.7;" xml:space="preserve">
<style type="text/css">
	.st0{fill:#FFFFFF;}
	.st1{clip-path:url(#SVGID_2_);fill:#231F20;}
	.st2{clip-path:url(#SVGID_2_);fill:#FFFFFF;}
	.st3{fill:#231F20;}
	.st4{fill:#FDBE57;}
	.st5{fill:#00A9B4;}
</style>
<g>
	<g>
		<rect x="233.3" class="st0" width="200" height="66.7"/>
		<g>
			<path d="M403.3,24.1c-7.6,0-15.3,0-22.9,0c0,4,0,8,0.1,12c0,3.5,1.3,5,4.7,6c0.7,0.2,1.4,0.4,2.1,0.6c9.4,0,18.7,0,28.1,0
				c0.5,0,0.9-0.2,1.4-0.3c-1.8-1.2-3.6-2.4-5.4-3.5c-0.8-0.5-1.9-0.9-2.8-0.9c-5.3-0.1-10.7,0-16-0.1c-1,0-2-0.1-2.8-0.4
				c-0.6-0.3-1-1-1.5-1.6c0.1-0.2,0.2-0.3,0.3-0.5c7.2,0,14.4,0,21.7,0c0-2,0.1-3.8,0-5.6c-0.1-2.4-1.5-4-3.8-4.7
				C405.3,24.6,404.3,24.4,403.3,24.1z M388.2,28.6c2.2,0,4.3,0,6.4,0c2,0,4,0.1,5.9,0.2c1.1,0.1,2,0.7,2.1,2.1c-4.8,0-9.6,0-14.4,0
				C388.2,30.2,388.2,29.5,388.2,28.6z"/>
			<path d="M347.2,42.6c2.4,0,4.8,0,7.2,0c0-4.2,0-8.5,0-13.3c4.7,4.7,9,9,13.3,13.3c3.8,0,7.5,0,11.3,0c0-6.2,0-12.3,0-18.5
				c-2.4,0-4.8,0-7.2,0c0,4.3,0,8.6,0,12.9c-0.2,0.2-0.5,0.3-0.7,0.5c-1-1.3-2-2.6-3.2-3.8c-3.1-3.2-6.3-6.4-9.5-9.5
				c-3.8,0-7.5,0-11.3,0C347.2,30.3,347.2,36.4,347.2,42.6z"/>
			<path d="M279.8,24.1c-7.6,0-15.3,0-22.9,0c0,3.7,0,7.5,0,11.2c2.4,0,4.6,0,7,0c0-2.1,0-4.1,0-6.2c3.2,0,6.3,0,9.4,0
				c5.4,0,5.9,0.5,5.6,5.9c-0.1,1.4-0.7,2.3-2,2.5c-0.9,0.2-1.8,0.3-2.7,0.3c-5.4,0-10.7,0-16.1,0c-0.6,0-1.2,0-1.6,0.2
				c-2.2,1.5-4.2,3-6.3,4.6c9.9,0,19.8,0,29.8,0c0.5-0.1,1-0.3,1.5-0.4c3.3-0.8,4.7-2.5,4.7-5.9c0-2.2,0-4.3,0-6.5
				c0-2.6-1.3-4.2-3.8-5C281.4,24.6,280.6,24.3,279.8,24.1z"/>
			<path d="M309.2,42.6c2.3,0,4.6,0,6.8,0c0-6.2,0-12.3,0-18.5c-3.1,0-6.2,0-9.2,0c-3.5,2.7-7,5.4-10.5,8.2
				c-4.4,3.4-8.7,6.9-13.1,10.3c3.2,0,6.4,0,9.6,0c1.8-1.5,3.5-3,5.3-4.4c0.6-0.4,1.4-0.7,2.2-0.7c2.4-0.1,4.7,0,7.2,0
				c0-1.5,0-2.7,0-4.1c-0.9-0.1-1.7-0.1-2.9-0.2c1.7-1.3,3-2.3,4.7-3.6C309.2,34.3,309.2,38.4,309.2,42.6z"/>
			<path d="M337.6,24.1c-3.1,0-6.2,0-9.2,0c-1.2,1-2.5,2.1-3.7,3.1c-2.6,2.1-5.2,4.1-7.9,6.2c0.7,0.5,1.1,0.9,1.6,1.3
				c3.3,2.6,6.7,5.2,10,7.9c3,0,5.9,0,8.9,0c-0.8-0.7-1.5-1.4-2.3-2c-3-2.4-6.1-4.7-9.2-7.1C329.9,30.2,333.7,27.2,337.6,24.1z"/>
			<path d="M338.6,42.6c2.4,0,4.8,0,7.2,0c0-6.2,0-12.3,0-18.5c-2.4,0-4.8,0-7.2,0C338.6,30.3,338.6,36.4,338.6,42.6z"/>
		</g>
	</g>
	<g>
		<rect x="700" class="st0" width="200" height="66.7"/>
		<g>
			<defs>
				<rect id="SVGID_1_" x="723.3" y="13.3" width="153.4" height="40"/>
			</defs>
			<clipPath id="SVGID_2_">
				<use xlink:href="#SVGID_1_"  style="overflow:visible;"/>
			</clipPath>
			<path class="st1" d="M871.5,15h1.5c1,0,1.6,0.3,1.6,1.2c0,0.7-0.5,1-1.1,1.1l1.1,1.8h-0.8l-1-1.7h-0.5v1.7h-0.8V15z M872.3,16.7
				h0.7c0.4,0,0.8-0.1,0.8-0.6c0-0.4-0.5-0.5-0.8-0.5h-0.7V16.7z"/>
			<polygon class="st1" points="723.3,17.4 750.4,17.4 750.4,28.6 743.5,28.6 743.5,52.2 730.3,52.2 730.3,28.6 723.3,28.6 			"/>
			<polygon class="st1" points="783.6,52.2 770.5,52.2 770.5,40.3 766.3,40.3 766.3,52.2 753.1,52.2 753.1,17.4 766.3,17.4 
				766.3,29.1 770.5,29.1 770.5,17.5 783.6,17.5 			"/>
			<path class="st1" d="M802.8,53.3c10.7,0,15.2-7.4,15.3-13c0-5.3,0-22.9,0-22.9h-13.1V39c0,1.3-0.8,2.1-2.1,2.1
				c-1.3,0-2.1-0.8-2.1-2.1V17.5h-13.2c0,0,0,17.6,0,22.9C787.6,45.9,792.1,53.4,802.8,53.3"/>
			<polygon class="st1" points="822.1,17.5 835.2,17.5 835.2,40.8 842.6,40.8 842.6,17.4 865.7,17.4 865.7,26.7 855.7,26.7 
				855.7,30.2 863.6,30.2 863.6,37 855.8,37 855.8,40.8 865.7,40.8 865.7,52.2 822.1,52.2 			"/>
			<path class="st2" d="M827.8,47.3c0,1.3,0.7,1.9,2.2,1.9c1,0,2.2-0.5,2.2-1.7c0-1-0.6-1.3-1.4-1.5c-0.4-0.1-1.3-0.2-1.3-0.7
				c0-0.5,0.5-0.7,0.9-0.7c0.5,0,1,0.2,0.9,0.8h1.1c0-1.2-0.9-1.7-2-1.7c-1,0-2.1,0.5-2.1,1.6c0,0.9,0.7,1.2,1.3,1.4
				c0.7,0.2,1.3,0.3,1.3,0.8c0,0.5-0.5,0.7-1,0.7c-0.7,0-1.2-0.2-1.1-1H827.8z"/>
			<polygon class="st2" points="840.1,43.8 838.9,43.8 837.3,47.7 837.3,47.7 837.1,43.8 836,43.8 834.3,47.7 834.3,47.7 
				834.2,43.8 833.1,43.8 833.4,49.1 834.6,49.1 836.3,45.3 836.3,45.3 836.4,49.1 837.6,49.1 			"/>
			<polygon class="st2" points="839.5,49.1 843.6,49.1 843.8,48.1 840.9,48.1 841.2,46.8 843.8,46.8 844,45.9 841.3,45.9 
				841.6,44.8 844.5,44.8 844.7,43.8 840.6,43.8 			"/>
			<path class="st2" d="M847.5,43.8h-1.9l-1.1,5.3h2.2c2,0,3.1-1.4,3.1-3.2C849.7,44.6,849,43.8,847.5,43.8 M846.7,48.1h-0.9
				l0.7-3.3h0.9c0.8,0,1.2,0.5,1.2,1.3C848.6,47.2,847.9,48.1,846.7,48.1"/>
			<polygon class="st2" points="849.9,49.1 854,49.1 854.2,48.1 851.3,48.1 851.6,46.8 854.2,46.8 854.4,45.9 851.8,45.9 852,44.8 
				854.9,44.8 855.1,43.8 851,43.8 			"/>
			<polygon class="st2" points="854.9,49.1 856,49.1 856.7,45.4 856.7,45.4 858.2,49.1 859.4,49.1 860.5,43.8 859.4,43.8 
				858.6,47.6 858.6,47.6 857.2,43.8 856,43.8 			"/>
			<path class="st1" d="M873,13.3c-2.1,0-3.8,1.7-3.8,3.8c0,2.1,1.7,3.8,3.8,3.8c2.1,0,3.8-1.7,3.8-3.8C876.7,15,875,13.3,873,13.3
				 M873,19.9c-1.6,0-2.8-1.3-2.8-2.8c0-1.6,1.3-2.8,2.8-2.8c1.6,0,2.8,1.3,2.8,2.8C875.8,18.6,874.5,19.9,873,19.9"/>
		</g>
	</g>
	<g>
		<rect x="466.7" class="st0" width="200" height="66.7"/>
		<g>
			<rect x="566.7" y="13.3" class="st3" width="28.4" height="28.4"/>
			<rect x="538.3" y="13.3" class="st4" width="28.4" height="28.4"/>
			<g>
				<path class="st0" d="M548.8,27.6c0,0.3,0.1,0.6,0.3,0.8c0.2,0.2,0.5,0.3,0.8,0.3h3.5h4.2c0.3,0,0.6-0.1,0.8-0.3
					c0.2-0.2,0.3-0.5,0.3-0.8v0v0c0-0.3-0.1-0.6-0.3-0.8c-0.2-0.2-0.5-0.3-0.8-0.3h-4.2H550c-0.3,0-0.6,0.1-0.8,0.3
					C549,26.9,548.8,27.2,548.8,27.6L548.8,27.6L548.8,27.6z"/>
				<path class="st0" d="M561.9,22.2c0,0.3,0.1,0.6,0.3,0.8c0.2,0.2,0.5,0.3,0.8,0.3h0h0c0.3,0,0.6-0.1,0.8-0.3
					c0.2-0.2,0.3-0.5,0.3-0.8v-2v-3.7c0-0.3-0.1-0.6-0.3-0.8c-0.2-0.2-0.5-0.3-0.8-0.3h0h0c-0.3,0-0.6,0.1-0.8,0.3
					c-0.2,0.2-0.3,0.5-0.3,0.8v3.7V22.2z"/>
				<path class="st0" d="M561.9,38.6c0,0.3,0.1,0.6,0.3,0.8c0.2,0.2,0.5,0.3,0.8,0.3h0h0c0.3,0,0.6-0.1,0.8-0.3
					c0.2-0.2,0.3-0.5,0.3-0.8v-2v-3.7c0-0.3-0.1-0.6-0.3-0.8c-0.2-0.2-0.5-0.3-0.8-0.3h0h0c-0.3,0-0.6,0.1-0.8,0.3
					c-0.2,0.2-0.3,0.5-0.3,0.8v3.7V38.6z"/>
				<path class="st0" d="M553.1,36.2c0,0.3,0.1,0.6,0.4,0.8c0,0,0,0,0,0c0.5,0.5,1.2,0.5,1.6,0l5-5c0.4-0.4,0.4-1.2,0-1.6l0,0
					c-0.5-0.5-1.2-0.5-1.6,0l-5,5C553.3,35.7,553.1,35.9,553.1,36.2"/>
				<path class="st0" d="M554.4,17.6c-0.3,0-0.6,0.1-0.8,0.4c0,0,0,0,0,0c-0.5,0.5-0.5,1.2,0,1.6l5,5c0.4,0.4,1.2,0.4,1.6,0l0,0
					c0.5-0.5,0.5-1.2,0-1.6l-5-5C554.9,17.7,554.7,17.6,554.4,17.6"/>
				<path class="st0" d="M591.3,33.1c-0.2,1-1,1.6-2,1.6c-0.6,0-1.1-0.2-1.5-0.6c-0.5-0.5-0.5-1.2-0.5-2.2v-0.1c0-1,0-1.6,0.5-2.2
					c0.4-0.4,0.9-0.6,1.5-0.6c1,0,1.7,0.5,2,1.5l0,0h-0.9l0,0c-0.2-0.5-0.5-0.7-1-0.7c-0.3,0-0.6,0.1-0.8,0.3
					c-0.3,0.3-0.3,0.6-0.3,1.7c0,1.1,0.1,1.4,0.3,1.7c0.2,0.2,0.5,0.3,0.8,0.3c0.5,0,0.8-0.3,1-0.7L591.3,33.1z"/>
			</g>
			<polygon class="st0" points="570.3,29 570.3,34.6 573.7,34.6 573.7,33.7 571.3,33.7 571.3,29 			"/>
			<g>
				<path class="st0" d="M575.4,31.8c0-1.1,0.1-1.4,0.3-1.7c0.2-0.2,0.5-0.3,0.8-0.3c0.3,0,0.6,0.1,0.8,0.3c0.3,0.3,0.3,0.6,0.3,1.7
					c0,1.1-0.1,1.4-0.3,1.7c-0.2,0.2-0.5,0.3-0.8,0.3c-0.3,0-0.6-0.1-0.8-0.3C575.4,33.2,575.4,32.9,575.4,31.8 M575,29.5L575,29.5
					c-0.5,0.5-0.5,1.2-0.5,2.2v0.1c0,1,0,1.7,0.5,2.2c0.4,0.4,0.9,0.6,1.5,0.6c0.6,0,1.1-0.2,1.5-0.6c0.5-0.5,0.5-1.2,0.5-2.2v-0.2
					c0-1,0-1.6-0.5-2.2c-0.4-0.4-0.9-0.6-1.5-0.6C575.9,28.9,575.4,29.1,575,29.5"/>
				<path class="st0" d="M580.3,29.5L580.3,29.5c-0.5,0.5-0.5,1.2-0.5,2.2v0.1c0,1,0,1.7,0.5,2.2c0.4,0.4,0.9,0.6,1.5,0.6
					c0.6,0,1.1-0.2,1.5-0.6c0.4-0.4,0.5-0.8,0.5-1.6v-0.9h-2.1v0.8h1.2v0.3c0,0.4-0.1,0.6-0.3,0.8c-0.2,0.2-0.5,0.4-0.9,0.4
					c-0.3,0-0.6-0.1-0.8-0.3c-0.3-0.3-0.3-0.6-0.3-1.7c0-1.1,0.1-1.4,0.3-1.7c0.2-0.2,0.5-0.3,0.8-0.3c0.5,0,0.9,0.2,1.1,0.7l0,0
					h0.9l0,0c-0.3-0.9-1-1.5-2-1.5C581.2,28.9,580.7,29.1,580.3,29.5"/>
			</g>
			<rect x="585.2" y="29" class="st0" width="0.9" height="5.6"/>
			<g>
				<g>
					<path class="st0" d="M574.1,24.6c-0.2,1-1,1.6-2,1.6c-0.6,0-1.1-0.2-1.5-0.6c-0.5-0.5-0.5-1.2-0.5-2.2v-0.1c0-1,0-1.6,0.5-2.2
						c0.4-0.4,0.9-0.6,1.5-0.6c1,0,1.7,0.5,2,1.5l0,0h-0.9l0,0c-0.2-0.5-0.5-0.7-1-0.7c-0.3,0-0.6,0.1-0.8,0.3
						c-0.3,0.3-0.3,0.6-0.3,1.7c0,1.1,0.1,1.4,0.3,1.7c0.2,0.2,0.5,0.3,0.8,0.3c0.5,0,0.8-0.3,1-0.7H574.1z"/>
					<path class="st0" d="M582.6,24.6c0.1,0.4,0.6,0.8,1.2,0.8c0.5,0,0.9-0.4,0.9-0.9c0-0.5-0.7-0.7-1.2-0.9
						c-0.8-0.3-1.6-0.6-1.6-1.6c0-1.1,0.9-1.6,1.8-1.6c1.8,0,1.9,1.5,1.9,1.5h-0.9c0,0-0.1-0.8-1-0.8c-0.2,0-0.9,0.1-0.9,0.8
						c0,0.6,0.9,0.8,1.5,1c0.8,0.3,1.3,0.6,1.3,1.5c0,0.5-0.2,0.8-0.5,1.1c-0.4,0.4-1.1,0.6-1.5,0.5c-1.5,0-1.9-1.1-2-1.5H582.6z"/>
					<path class="st0" d="M589.4,21.3c0.5,0,1,0.2,1.1,0.9c0,0.2,0,0.4,0.1,0.7h-2.2c0-0.7,0.1-1,0.3-1.2
						C588.8,21.5,589.1,21.3,589.4,21.3 M587.9,21.1L587.9,21.1c-0.5,0.5-0.5,1.2-0.5,2.2v0.1c0,1,0,1.6,0.5,2.2
						c0.4,0.4,0.9,0.6,1.5,0.6c1,0,1.7-0.6,1.9-1.5l0-0.1h-0.9l0,0.1c-0.2,0.4-0.5,0.7-1,0.7c-0.3,0-0.6-0.1-0.8-0.3
						c-0.2-0.3-0.3-0.5-0.3-1.4c0.1,0,2.3,0,2.3,0h0.9v-0.3c0-0.4,0-0.8,0-1.1c-0.1-1.3-0.9-1.7-2-1.7
						C588.8,20.5,588.3,20.7,587.9,21.1"/>
					<path class="st0" d="M578.9,23.3c-0.3,0.1-0.7,0.2-0.9,0.3c-0.6,0.2-1.3,0.4-1.3,1c0,0.4,0.4,0.8,1,0.8c0.5,0,1-0.2,1.2-0.9
						V23.3z M579,25.6c-0.3,0.3-0.6,0.6-1.2,0.6c-1.6,0.1-2-1-2-1.6c0-0.8,0.5-1.2,1.3-1.5c0.6-0.2,1.7-0.4,1.8-1
						c0.1-0.7-0.6-0.8-0.9-0.8c-0.9,0-1,0.8-1,0.8h-1c0,0,0.2-1.6,2-1.6c0.9,0,1.7,0.4,1.7,1.6l0,1.9c0,1.2,0.1,1.5,0.2,2.1h-0.9
						C579,25.9,579,25.6,579,25.6"/>
					<path class="st0" d="M592,35.2h0.1c0.1,0,0.2,0,0.2-0.1c0-0.1-0.1-0.1-0.2-0.1H592V35.2z M592.1,34.8c0.2,0,0.4,0.1,0.4,0.2
						c0,0.1-0.1,0.2-0.2,0.2l0.2,0.4h-0.2l-0.2-0.4H592v0.4h-0.2v-0.9H592.1z M591.7,34.8c-0.1,0.1-0.2,0.3-0.2,0.5
						c0,0.2,0.1,0.3,0.2,0.5c0.1,0.1,0.3,0.2,0.5,0.2c0.2,0,0.4-0.1,0.5-0.2c0.1-0.1,0.2-0.3,0.2-0.5c0-0.2-0.1-0.3-0.2-0.5
						c-0.1-0.1-0.3-0.2-0.5-0.2C591.9,34.6,591.8,34.6,591.7,34.8 M592.7,34.7c0.1,0.1,0.2,0.3,0.2,0.5c0,0.2-0.1,0.4-0.2,0.6
						c-0.2,0.1-0.4,0.2-0.6,0.2c-0.2,0-0.4-0.1-0.6-0.2c-0.1-0.1-0.2-0.3-0.2-0.5c0-0.2,0.1-0.4,0.2-0.6c0.1-0.1,0.3-0.2,0.5-0.2
						C592.3,34.4,592.5,34.5,592.7,34.7"/>
				</g>
			</g>
			<g>
				<polygon class="st3" points="545.6,46.9 546.2,46.9 546.2,51.5 548.5,51.5 548.5,52 545.6,52 				"/>
				<path class="st3" d="M549.2,48.3h0.5V52h-0.5V48.3z M549.2,46.9h0.6v0.6h-0.6V46.9z"/>
				<g>
					<path class="st3" d="M551.1,48.8h-0.6v-0.4h0.6v-0.5c0-0.6,0.3-1,0.9-1c0.1,0,0.3,0,0.4,0.1v0.4c-0.2,0-0.3,0-0.4,0
						c-0.3,0-0.4,0.2-0.4,0.5v0.6h0.8v0.4h-0.8V52h-0.5V48.8z"/>
					<path class="st3" d="M554.9,49.8c0-0.7-0.4-1.1-0.9-1.1c-0.5,0-0.9,0.4-0.9,1.1H554.9z M555.5,51.2c-0.3,0.6-0.8,0.9-1.5,0.9
						c-0.9,0-1.5-0.7-1.5-1.9c0-1.2,0.6-1.9,1.4-1.9c0.9,0,1.4,0.7,1.4,1.8v0.2h-2.3v0.1c0,0.8,0.4,1.2,1,1.2c0.5,0,0.8-0.2,1-0.7
						L555.5,51.2z"/>
				</g>
				<polygon class="st3" points="556.4,52 556.1,52 556.1,51.2 556.8,51.2 556.8,52 556.4,53.1 556,53 				"/>
				<g>
					<path class="st3" d="M559.1,50.6c0.2,0.7,0.7,1,1.2,1c0.7,0,1.1-0.4,1.1-0.9c0-0.3-0.1-0.5-0.3-0.7c-0.3-0.2-0.7-0.3-1.2-0.5
						c-0.8-0.3-1.2-0.7-1.2-1.3c0-0.8,0.6-1.4,1.5-1.4c0.8,0,1.3,0.4,1.6,1.2l-0.5,0.1c-0.2-0.6-0.6-0.9-1.1-0.9
						c-0.5,0-0.9,0.3-0.9,0.8c0,0.2,0.1,0.4,0.3,0.6c0.2,0.2,0.6,0.3,1.1,0.5c0.9,0.3,1.3,0.7,1.3,1.5c0,0.8-0.6,1.4-1.6,1.4
						c-0.9,0-1.5-0.5-1.8-1.4L559.1,50.6z"/>
				</g>
				<path class="st3" d="M562.9,48.3h0.5V52h-0.5V48.3z M562.9,46.9h0.6v0.6h-0.6V46.9z"/>
				<g>
					<path class="st3" d="M564.6,48.3h0.5v0.6c0.4-0.4,0.7-0.6,1.2-0.6c0.5,0,0.8,0.3,0.9,0.6c0.4-0.4,0.8-0.6,1.2-0.6
						c0.6,0,0.9,0.4,0.9,1V52h-0.5v-2.5c0-0.5-0.2-0.7-0.6-0.7c-0.4,0-0.7,0.2-1,0.6V52h-0.5v-2.5c0-0.5-0.2-0.7-0.6-0.7
						c-0.4,0-0.7,0.2-1,0.6V52h-0.5V48.3z"/>
					<path class="st3" d="M571.8,51.6c0.6,0,1-0.5,1-1.4c0-1-0.3-1.5-1-1.5c-0.4,0-0.7,0.2-0.9,0.5v1.8
						C571.1,51.5,571.4,51.6,571.8,51.6 M570.3,48.3h0.4l0.1,0.4c0.3-0.3,0.5-0.5,1-0.5c1,0,1.5,0.7,1.5,1.9c0,1.2-0.5,1.9-1.5,1.9
						c-0.4,0-0.7-0.1-0.9-0.5v1.7h-0.5V48.3z"/>
				</g>
				<rect x="574.2" y="46.9" class="st3" width="0.5" height="5.1"/>
				<path class="st3" d="M576,48.3h0.5V52H576V48.3z M576,46.9h0.6v0.6H576V46.9z"/>
				<g>
					<path class="st3" d="M577.9,48.8h-0.6v-0.4h0.6v-0.5c0-0.6,0.3-1,0.9-1c0.1,0,0.3,0,0.4,0.1v0.4c-0.2,0-0.3,0-0.4,0
						c-0.3,0-0.4,0.2-0.4,0.5v0.6h0.8v0.4h-0.8V52h-0.5V48.8z"/>
				</g>
				<path class="st3" d="M580,48.3h0.5V52H580V48.3z M580,46.9h0.6v0.6H580V46.9z"/>
				<g>
					<path class="st3" d="M583.8,49.8c0-0.7-0.4-1.1-0.9-1.1c-0.5,0-0.9,0.4-0.9,1.1H583.8z M584.4,51.2c-0.3,0.6-0.8,0.9-1.5,0.9
						c-0.9,0-1.5-0.7-1.5-1.9c0-1.2,0.6-1.9,1.4-1.9c0.9,0,1.4,0.7,1.4,1.8v0.2H582v0.1c0,0.8,0.4,1.2,1,1.2c0.5,0,0.8-0.2,1-0.7
						L584.4,51.2z"/>
					<path class="st3" d="M586.5,48.7c-0.6,0-0.9,0.5-0.9,1.4c0,1,0.3,1.5,1,1.5c0.4,0,0.7-0.2,0.9-0.5v-1.8
						C587.2,48.9,586.9,48.7,586.5,48.7 M588,50.9c0,0.4,0,0.8,0,1.1h-0.4l-0.1-0.5c-0.3,0.4-0.6,0.5-1,0.5c-0.9,0-1.4-0.7-1.4-1.9
						c0-1.2,0.5-1.9,1.5-1.9c0.4,0,0.7,0.2,1,0.5v-1.8h0.5V50.9z"/>
				</g>
				<rect x="588.8" y="51.2" class="st3" width="0.7" height="0.8"/>
				<path class="st3" d="M589.3,47.6h0.1c0.1,0,0.2,0,0.2-0.1c0-0.1-0.1-0.1-0.2-0.1h-0.1V47.6z M589.5,47.2c0.2,0,0.4,0.1,0.4,0.2
					c0,0.1-0.1,0.2-0.2,0.2l0.2,0.4h-0.2l-0.2-0.4h-0.1v0.4h-0.2v-0.9H589.5z M589,47.2c-0.1,0.1-0.2,0.3-0.2,0.5
					c0,0.2,0.1,0.3,0.2,0.5c0.1,0.1,0.3,0.2,0.5,0.2c0.2,0,0.4-0.1,0.5-0.2c0.1-0.1,0.2-0.3,0.2-0.5c0-0.2-0.1-0.3-0.2-0.5
					c-0.1-0.1-0.3-0.2-0.5-0.2C589.3,47,589.1,47.1,589,47.2 M590,47.1c0.1,0.1,0.2,0.3,0.2,0.5c0,0.2-0.1,0.4-0.2,0.6
					c-0.2,0.1-0.4,0.2-0.6,0.2c-0.2,0-0.4-0.1-0.6-0.2c-0.1-0.1-0.2-0.3-0.2-0.5c0-0.2,0.1-0.4,0.2-0.6c0.1-0.1,0.3-0.2,0.5-0.2
					C589.7,46.9,589.9,47,590,47.1"/>
			</g>
		</g>
	</g>
	<g>
		<rect class="st0" width="200" height="66.7"/>
		<g>
			<path class="st5" d="M80.1,49.3c0,0,16.2-4.5,34.8-2.5c18.6,1.9,27.3,6.5,46.8,6.2c-19,1.6-34.3-2.6-46.5-4
				C96,46.8,81.6,49.1,80.1,49.3"/>
			<path d="M95.3,22.9c0,0.4-0.1,0.8-0.4,1c-0.2,0.3-0.6,0.4-1,0.4c0,0-0.2,0-0.5-0.1c-0.4-0.1-0.8-0.2-1.2-0.3c0.7,3.1,1,5.7,1,7.8
				c0,3.8-0.7,6.7-2.1,8.6c-1.4,2-3.5,2.9-6.2,2.9c-1.8,0-3.3-0.6-4.3-1.8c-1-1.2-1.5-2.8-1.5-5c0-1.5,0.5-2.3,1.4-2.3
				c0.5,0,0.8,0.2,1,0.5c0.2,0.3,0.3,0.8,0.3,1.6c0,0.1,0,0.2,0,0.4c0,0.1,0,0.2,0,0.3c0,2.6,1.1,3.9,3.4,3.9c1.8,0,3.2-0.7,4.1-2.2
				c1-1.5,1.4-3.7,1.4-6.5c0-2.8-0.4-5.6-1.1-8.5c-1-0.2-1.9-0.4-2.7-0.4c-0.6,0-1.4,0.1-2.2,0.3c-0.9,0.2-1.4,0.3-1.6,0.3
				c-0.8,0-1.2-0.4-1.2-1.3c0-0.5,0.5-0.9,1.5-1.2c1-0.3,2.4-0.5,4.1-0.5c2.3,0,4.4,0.3,6.5,0.8C94.9,21.9,95.3,22.3,95.3,22.9"/>
			<path d="M95.3,22.9c0,0.4-0.1,0.8-0.4,1c-0.2,0.3-0.6,0.4-1,0.4c0,0-0.2,0-0.5-0.1c-0.4-0.1-0.8-0.2-1.2-0.3c0.7,3.1,1,5.7,1,7.8
				c0,3.8-0.7,6.7-2.1,8.6c-1.4,2-3.5,2.9-6.2,2.9c-1.8,0-3.3-0.6-4.3-1.8c-1-1.2-1.5-2.8-1.5-5c0-1.5,0.5-2.3,1.4-2.3
				c0.5,0,0.8,0.2,1,0.5c0.2,0.3,0.3,0.8,0.3,1.6c0,0.1,0,0.2,0,0.4c0,0.1,0,0.2,0,0.3c0,2.6,1.1,3.9,3.4,3.9c1.8,0,3.2-0.7,4.1-2.2
				c1-1.5,1.4-3.7,1.4-6.5c0-2.8-0.4-5.6-1.1-8.5c-1-0.2-1.9-0.4-2.7-0.4c-0.6,0-1.4,0.1-2.2,0.3c-0.9,0.2-1.4,0.3-1.6,0.3
				c-0.8,0-1.2-0.4-1.2-1.3c0-0.5,0.5-0.9,1.5-1.2c1-0.3,2.4-0.5,4.1-0.5c2.3,0,4.4,0.3,6.5,0.8C94.9,21.9,95.3,22.3,95.3,22.9z"/>
			<path d="M115.1,32.9c0-3.1-0.7-5.4-2.1-7c-1.4-1.6-3.3-2.4-5.9-2.4c-2.4,0-4.3,0.8-5.5,2.4c-1.3,1.6-1.9,3.9-1.9,6.9
				c0,2.7,0.7,4.8,2.1,6.4c1.4,1.6,3.2,2.4,5.5,2.4c2.4,0,4.3-0.8,5.7-2.3C114.4,37.7,115.1,35.6,115.1,32.9 M117.7,32.8
				c0,3.5-1,6.2-2.9,8.2c-1.9,2-4.5,2.9-7.8,2.9c-2.9,0-5.3-1-7.2-3c-1.8-2-2.7-4.6-2.7-8c0-3.5,0.8-6.4,2.4-8.5
				c1.7-2.3,4.3-3.5,7.6-3.5c3.3,0,5.9,1,7.8,3.1C116.8,26.2,117.7,29.1,117.7,32.8"/>
			<path d="M115.1,32.9c0-3.1-0.7-5.4-2.1-7c-1.4-1.6-3.3-2.4-5.9-2.4c-2.4,0-4.3,0.8-5.5,2.4c-1.3,1.6-1.9,3.9-1.9,6.9
				c0,2.7,0.7,4.8,2.1,6.4c1.4,1.6,3.2,2.4,5.5,2.4c2.4,0,4.3-0.8,5.7-2.3C114.4,37.7,115.1,35.6,115.1,32.9z M117.7,32.8
				c0,3.5-1,6.2-2.9,8.2c-1.9,2-4.5,2.9-7.8,2.9c-2.9,0-5.3-1-7.2-3c-1.8-2-2.7-4.6-2.7-8c0-3.5,0.8-6.4,2.4-8.5
				c1.7-2.3,4.3-3.5,7.6-3.5c3.3,0,5.9,1,7.8,3.1C116.8,26.2,117.7,29.1,117.7,32.8z"/>
			<path d="M138.4,21.8c0,0.6-0.6,1.8-1.8,3.6c-2.2,3.4-4.8,6.2-7.7,8.4l0,0v1.6c0,0.7,0,1.6,0,2.6c0,1,0,1.7,0,2
				c0,1.7-0.1,2.8-0.2,3.3c-0.2,0.7-0.6,1.1-1.2,1.1c-0.8,0-1.1-0.6-1.1-1.9c0-0.1,0-0.7,0.1-1.8c0-1.1,0-2.2,0-3.2v-3.2
				c-1.3-1.2-2.7-3.2-4.3-5.8c-1.7-3-2.5-5.2-2.5-6.6c0-0.9,0.4-1.3,1.2-1.3c0.5,0,0.9,0.2,1,0.5c0.1,0.2,0.3,0.7,0.4,1.4
				c0.2,0.8,0.4,1.4,0.6,1.9c1.1,2.8,2.6,5.4,4.7,7.5c2.9-2.3,5.4-5.4,7.5-9.1c0.3-0.6,0.6-1.1,1-1.7c0.3-0.4,0.6-0.6,1-0.6
				s0.7,0.1,0.9,0.4C138.3,21.1,138.4,21.4,138.4,21.8"/>
			<path d="M138.4,21.8c0,0.6-0.6,1.8-1.8,3.6c-2.2,3.4-4.8,6.2-7.7,8.4l0,0v1.6c0,0.7,0,1.6,0,2.6c0,1,0,1.7,0,2
				c0,1.7-0.1,2.8-0.2,3.3c-0.2,0.7-0.6,1.1-1.2,1.1c-0.8,0-1.1-0.6-1.1-1.9c0-0.1,0-0.7,0.1-1.8c0-1.1,0-2.2,0-3.2v-3.2
				c-1.3-1.2-2.7-3.2-4.3-5.8c-1.7-3-2.5-5.2-2.5-6.6c0-0.9,0.4-1.3,1.2-1.3c0.5,0,0.9,0.2,1,0.5c0.1,0.2,0.3,0.7,0.4,1.4
				c0.2,0.8,0.4,1.4,0.6,1.9c1.1,2.8,2.6,5.4,4.7,7.5c2.9-2.3,5.4-5.4,7.5-9.1c0.3-0.6,0.6-1.1,1-1.7c0.3-0.4,0.6-0.6,1-0.6
				s0.7,0.1,0.9,0.4C138.3,21.1,138.4,21.4,138.4,21.8z"/>
			<path d="M154.2,35.1c-1.3-2.9-2.5-5.9-3.5-9.2c-1.2,2.7-2.7,5.1-4.5,7.4C148.8,34.3,151.5,34.8,154.2,35.1 M160.7,42.4
				c0,0.8-0.4,1.2-1.2,1.2c-0.5,0-1.1-0.5-1.8-1.5c-0.5-0.8-1.3-2.3-2.3-4.5c-3.2,0-6.7-0.8-10.7-2.2c-3.2,3.3-5.3,5-6.5,5
				c-0.3,0-0.6-0.1-0.8-0.3c-0.2-0.2-0.3-0.5-0.3-0.8c0-0.3,0.3-0.7,0.8-1.2c0.6-0.4,1.1-0.9,1.6-1.3c0.9-0.7,1.8-1.6,2.7-2.4
				c-1.4-0.6-2.1-1.1-2.1-1.7c0-0.3,0.1-0.6,0.3-0.9c0.2-0.2,0.5-0.4,0.8-0.4c0.3,0,0.6,0.1,1.1,0.3c0.9,0.4,1.4,0.6,1.6,0.7
				c3.3-4.4,5.2-7.6,5.6-9.6c0.1-0.7,0.2-1.4,0.4-2.1c0.2-0.5,0.6-0.8,1.2-0.8c0.5,0,0.8,0.2,1,0.6c0.1,0.2,0.2,0.6,0.2,1.1
				c0.1,0.6,0.1,1.1,0.2,1.3c0.8,3.2,2.3,7.2,4.6,12.1c0.4,0,0.8,0,1.1-0.1l0.5,0c0.9,0,1.4,0.4,1.4,1.2c0,0.9-0.5,1.3-1.4,1.3h-0.4
				c0.3,0.7,0.9,1.7,1.7,3C160.4,41.4,160.7,42,160.7,42.4"/>
			<path d="M154.2,35.1c-1.3-2.9-2.5-5.9-3.5-9.2c-1.2,2.7-2.7,5.1-4.5,7.4C148.8,34.3,151.5,34.8,154.2,35.1z M160.7,42.4
				c0,0.8-0.4,1.2-1.2,1.2c-0.5,0-1.1-0.5-1.8-1.5c-0.5-0.8-1.3-2.3-2.3-4.5c-3.2,0-6.7-0.8-10.7-2.2c-3.2,3.3-5.3,5-6.5,5
				c-0.3,0-0.6-0.1-0.8-0.3c-0.2-0.2-0.3-0.5-0.3-0.8c0-0.3,0.3-0.7,0.8-1.2c0.6-0.4,1.1-0.9,1.6-1.3c0.9-0.7,1.8-1.6,2.7-2.4
				c-1.4-0.6-2.1-1.1-2.1-1.7c0-0.3,0.1-0.6,0.3-0.9c0.2-0.2,0.5-0.4,0.8-0.4c0.3,0,0.6,0.1,1.1,0.3c0.9,0.4,1.4,0.6,1.6,0.7
				c3.3-4.4,5.2-7.6,5.6-9.6c0.1-0.7,0.2-1.4,0.4-2.1c0.2-0.5,0.6-0.8,1.2-0.8c0.5,0,0.8,0.2,1,0.6c0.1,0.2,0.2,0.6,0.2,1.1
				c0.1,0.6,0.1,1.1,0.2,1.3c0.8,3.2,2.3,7.2,4.6,12.1c0.4,0,0.8,0,1.1-0.1l0.5,0c0.9,0,1.4,0.4,1.4,1.2c0,0.9-0.5,1.3-1.4,1.3h-0.4
				c0.3,0.7,0.9,1.7,1.7,3C160.4,41.4,160.7,42,160.7,42.4z"/>
			<path class="st5" d="M38.7,40.5c0,0,1.6-0.9,3.2-0.8c1.4,0.1,2.8,1.2,3.2,1.2"/>
			<path class="st5" d="M39.7,37.7c0,0,1.5,0.6,2.4,1c1,0.3,2.5,2,2.9,2.1"/>
			<path class="st5" d="M39.8,40.4c0,0.4-0.3,0.6-0.7,0.6c-0.4,0-0.7-0.3-0.7-0.6c0-0.4,0.3-0.6,0.7-0.6
				C39.5,39.8,39.8,40.1,39.8,40.4"/>
			<ellipse class="st5" cx="39.1" cy="40.4" rx="0.7" ry="0.6"/>
			<path class="st5" d="M40.1,37.4c0,0.4-0.3,0.6-0.7,0.6c-0.4,0-0.7-0.3-0.7-0.6c0-0.4,0.3-0.6,0.7-0.6
				C39.8,36.7,40.1,37,40.1,37.4"/>
			<ellipse class="st5" cx="39.4" cy="37.4" rx="0.7" ry="0.6"/>
			<path class="st5" d="M47.1,39.8c0,0.9-0.8,1.6-1.7,1.6c-0.9,0-1.7-0.7-1.7-1.6c0-0.9,0.8-1.6,1.7-1.6
				C46.3,38.2,47.1,38.9,47.1,39.8"/>
			<ellipse class="st5" cx="45.4" cy="39.8" rx="1.7" ry="1.6"/>
			<path class="st5" d="M63.4,30.3c-1.4,0.9-3.1,0.7-3.9-0.4c-0.8-1.1-0.3-2.8,1-3.7c1.3-0.9,3.1-0.7,3.9,0.4
				C65.2,27.7,64.7,29.4,63.4,30.3 M50.2,26c-0.8,0-1.4-0.8-1.4-1.7c0-0.9,0.6-1.7,1.4-1.7c0.8,0,1.4,0.8,1.4,1.7
				C51.7,25.2,51,26,50.2,26 M46.6,22.3c-0.9,0-1.6-0.8-1.6-1.9c0-1,0.7-1.9,1.6-1.9c0.9,0,1.6,0.8,1.6,1.9
				C48.2,21.5,47.5,22.3,46.6,22.3 M42.7,18.9c-1,0-1.8-1-1.8-2.2c0-1.2,0.8-2.2,1.8-2.2c1,0,1.8,1,1.8,2.2
				C44.5,17.9,43.7,18.9,42.7,18.9 M67.8,31.9c1.3-1,0.1-3.1-0.4-3.8c-0.5-0.7,0.9-2.7,0.9-4.1c1.5-6.4-12.1-1.2-14.3,3.4
				c0.1,0.1,0.1,0.3,0.1,0.5c0,0.6-0.4,1.1-0.9,1.1c-0.5,0-0.9-0.5-0.9-1.1c0-0.6,0.4-1.1,0.9-1.1c0.3,0,0.6,0.2,0.8,0.5
				c0-2-0.7-4.8-4-6.1c-13.2-20.9-14.4,6.4-7.5,12.7c1.2,2.5,2.1,4.6,2.1,4.6l1.9,1.7c0,0,0.4,1,1.6,2.2c1.5,2.3,6.2-0.4,7.4,1
				c0.9,0.9,0-0.5,0-1.4c-1-0.2-2.3-0.4-3-0.6c-1.2-0.4-3-1.2-4.1-2.2c-0.4-0.4-1-0.6-1.5-0.7c-0.3-0.1-0.5-0.1-0.7-0.2
				c0.1,0.4,0.2,0.6,0.2,0.6L45,38.3c0,0-3.2-8,1.4-14.8c0.5-0.7,1.1,0.5,1.2,1.1c0,0.7-0.1,1,1.8,1.8c1.9,0.7,3.9,2.9,2.7,3.2
				c-1.2,0.3-4.3,2.7-5.4,5.3c-0.6,1.3-0.7,2.2-0.7,2.8c0.2,0.1,0.5,0.2,0.8,0.3c0.5,0.1,1.1,0.3,1.6,0.8c1,0.9,2.8,1.8,4,2.1
				c0.7,0.2,2,0.4,3,0.6c0.1-0.2,0.4-0.3,0.8-0.1c1,0.3,3.5,0.9,5.4,0.5c2.3-0.4,3.9-2,5.6-2.7c3-1.2,0.9-2.2,1.7-2.3
				c0.8,0,2-1.2,2-2C70.9,34.1,59.7,34.1,67.8,31.9"/>
			<path class="st5" d="M63.4,30.3c-1.4,0.9-3.1,0.7-3.9-0.4c-0.8-1.1-0.3-2.8,1-3.7c1.3-0.9,3.1-0.7,3.9,0.4
				C65.2,27.7,64.7,29.4,63.4,30.3z M50.2,26c-0.8,0-1.4-0.8-1.4-1.7c0-0.9,0.6-1.7,1.4-1.7c0.8,0,1.4,0.8,1.4,1.7
				C51.7,25.2,51,26,50.2,26z M46.6,22.3c-0.9,0-1.6-0.8-1.6-1.9c0-1,0.7-1.9,1.6-1.9c0.9,0,1.6,0.8,1.6,1.9
				C48.2,21.5,47.5,22.3,46.6,22.3z M42.7,18.9c-1,0-1.8-1-1.8-2.2c0-1.2,0.8-2.2,1.8-2.2c1,0,1.8,1,1.8,2.2
				C44.5,17.9,43.7,18.9,42.7,18.9z M67.8,31.9c1.3-1,0.1-3.1-0.4-3.8c-0.5-0.7,0.9-2.7,0.9-4.1c1.5-6.4-12.1-1.2-14.3,3.4
				c0.1,0.1,0.1,0.3,0.1,0.5c0,0.6-0.4,1.1-0.9,1.1c-0.5,0-0.9-0.5-0.9-1.1c0-0.6,0.4-1.1,0.9-1.1c0.3,0,0.6,0.2,0.8,0.5
				c0-2-0.7-4.8-4-6.1c-13.2-20.9-14.4,6.4-7.5,12.7c1.2,2.5,2.1,4.6,2.1,4.6l1.9,1.7c0,0,0.4,1,1.6,2.2c1.5,2.3,6.2-0.4,7.4,1
				c0.9,0.9,0-0.5,0-1.4c-1-0.2-2.3-0.4-3-0.6c-1.2-0.4-3-1.2-4.1-2.2c-0.4-0.4-1-0.6-1.5-0.7c-0.3-0.1-0.5-0.1-0.7-0.2
				c0.1,0.4,0.2,0.6,0.2,0.6L45,38.3c0,0-3.2-8,1.4-14.8c0.5-0.7,1.1,0.5,1.2,1.1c0,0.7-0.1,1,1.8,1.8c1.9,0.7,3.9,2.9,2.7,3.2
				c-1.2,0.3-4.3,2.7-5.4,5.3c-0.6,1.3-0.7,2.2-0.7,2.8c0.2,0.1,0.5,0.2,0.8,0.3c0.5,0.1,1.1,0.3,1.6,0.8c1,0.9,2.8,1.8,4,2.1
				c0.7,0.2,2,0.4,3,0.6c0.1-0.2,0.4-0.3,0.8-0.1c1,0.3,3.5,0.9,5.4,0.5c2.3-0.4,3.9-2,5.6-2.7c3-1.2,0.9-2.2,1.7-2.3
				c0.8,0,2-1.2,2-2C70.9,34.1,59.7,34.1,67.8,31.9z"/>
		</g>
	</g>
</g>
</svg>
