<?xml version="1.0" encoding="utf-8"?>
<!-- Generator: Adobe Illustrator 19.1.0, SVG Export Plug-In . SVG Version: 6.00 Build 0)  -->
<svg version="1.1" id="Layer_1" xmlns="http://www.w3.org/2000/svg" xmlns:xlink="http://www.w3.org/1999/xlink" x="0px" y="0px"
	 viewBox="0 0 80 40" style="enable-background:new 0 0 80 40;" xml:space="preserve">
<style type="text/css">
	.st0{fill:#231F20;}
	.st1{fill:#FDBE57;}
	.st2{fill:#FFFFFF;}
</style>
<g>
	<rect x="40" y="0" class="st0" width="40" height="40"/>
	<rect x="0" y="0" class="st1" width="40" height="40"/>
	<g>
		<path class="st2" d="M14.9,20c0,0.5,0.2,0.9,0.5,1.2c0.3,0.3,0.7,0.5,1.1,0.5h4.9h6c0.4,0,0.8-0.2,1.1-0.5
			c0.3-0.3,0.5-0.7,0.5-1.2v0v0c0-0.5-0.2-0.9-0.5-1.2c-0.3-0.3-0.7-0.5-1.1-0.5h-6h-4.9c-0.4,0-0.8,0.2-1.1,0.5
			C15.1,19.1,14.9,19.5,14.9,20L14.9,20L14.9,20z"/>
		<path class="st2" d="M33.3,12.6c0,0.4,0.2,0.8,0.5,1.1c0.3,0.3,0.7,0.5,1.2,0.5h0h0c0.5,0,0.9-0.2,1.2-0.5
			c0.3-0.3,0.5-0.7,0.5-1.1V9.7V4.5c0-0.4-0.2-0.8-0.5-1.1c-0.3-0.3-0.7-0.5-1.2-0.5h0h0c-0.5,0-0.9,0.2-1.2,0.5
			c-0.3,0.3-0.5,0.7-0.5,1.1v5.2V12.6z"/>
		<path class="st2" d="M33.3,35.5c0,0.4,0.2,0.8,0.5,1.1c0.3,0.3,0.7,0.5,1.2,0.5h0h0c0.5,0,0.9-0.2,1.2-0.5
			c0.3-0.3,0.5-0.7,0.5-1.1v-2.9v-5.2c0-0.4-0.2-0.8-0.5-1.1c-0.3-0.3-0.7-0.5-1.2-0.5h0h0c-0.5,0-0.9,0.2-1.2,0.5
			c-0.3,0.3-0.5,0.7-0.5,1.1v5.2V35.5z"/>
		<path class="st2" d="M21,32.2c0,0.4,0.2,0.9,0.5,1.2c0,0,0,0,0,0c0.6,0.6,1.7,0.7,2.3,0.1l7-7c0.6-0.6,0.6-1.6-0.1-2.3l0,0
			c-0.6-0.6-1.7-0.7-2.3,0l-7,7C21.1,31.4,21,31.8,21,32.2"/>
		<path class="st2" d="M22.7,6c-0.4,0-0.9,0.2-1.2,0.5c0,0,0,0,0,0c-0.6,0.6-0.7,1.7-0.1,2.3l7,7c0.6,0.6,1.6,0.6,2.3,0l0,0
			c0.6-0.6,0.7-1.7,0-2.3l-7-7C23.5,6.2,23.1,6,22.7,6"/>
		<path class="st2" d="M74.7,27.8C74.4,29.2,73.4,30,72,30c-0.8,0-1.5-0.3-2.1-0.8c-0.8-0.8-0.8-1.6-0.8-3.1v-0.1
			c0-1.4,0-2.3,0.8-3.1c0.6-0.6,1.3-0.8,2.1-0.8c1.4,0,2.4,0.8,2.7,2.1l0,0.1h-1.3l0,0c-0.2-0.6-0.8-1-1.4-1c-0.4,0-0.8,0.2-1.1,0.5
			c-0.4,0.4-0.5,0.8-0.5,2.4c0,1.5,0.1,2,0.5,2.4c0.3,0.3,0.7,0.5,1.1,0.5c0.7,0,1.2-0.4,1.4-1L74.7,27.8z"/>
	</g>
	<polygon class="st2" points="45.2,22.1 45.2,29.9 49.9,29.9 49.9,28.7 46.5,28.7 46.5,22.1 	"/>
	<g>
		<path class="st2" d="M52.3,26c0-1.6,0.1-2,0.4-2.4c0.3-0.3,0.7-0.5,1.1-0.5c0.4,0,0.9,0.2,1.1,0.5c0.4,0.4,0.4,0.8,0.4,2.4
			c0,1.6-0.1,2-0.4,2.4c-0.3,0.3-0.7,0.5-1.1,0.5c-0.4,0-0.9-0.2-1.1-0.5C52.3,28,52.3,27.6,52.3,26 M51.7,22.8L51.7,22.8
			C51,23.6,51,24.5,51,25.9v0.1c0,1.5,0,2.3,0.8,3.1c0.6,0.6,1.3,0.8,2.1,0.8c0.8,0,1.5-0.3,2.1-0.8c0.8-0.8,0.8-1.6,0.8-3v-0.2
			c0-1.4,0-2.3-0.8-3c-0.6-0.6-1.3-0.8-2.1-0.8C53,22,52.3,22.3,51.7,22.8"/>
		<path class="st2" d="M59.3,22.8L59.3,22.8c-0.8,0.8-0.8,1.6-0.8,3.1v0.1c0,1.5,0,2.3,0.8,3.1c0.6,0.6,1.3,0.8,2.1,0.8
			c0.9,0,1.6-0.3,2.2-0.9c0.5-0.5,0.7-1.2,0.7-2.2v-1.2h-3v1.1H63v0.4c0,0.5-0.1,0.9-0.4,1.2c-0.3,0.3-0.7,0.5-1.2,0.5
			c-0.4,0-0.8-0.2-1.1-0.5c-0.4-0.4-0.5-0.8-0.5-2.4c0-1.6,0.1-2,0.5-2.4c0.3-0.3,0.7-0.5,1.1-0.5c0.7,0,1.2,0.3,1.5,1l0,0h1.3
			l0-0.1c-0.4-1.3-1.4-2.1-2.8-2.1C60.5,22,59.8,22.3,59.3,22.8"/>
	</g>
	<rect x="66.1" y="22.1" class="st2" width="1.3" height="7.8"/>
	<g>
		<g>
			<path class="st2" d="M50.5,15.9c-0.3,1.4-1.4,2.2-2.8,2.2c-0.8,0-1.5-0.3-2.1-0.8c-0.8-0.8-0.8-1.6-0.8-3.1V14
				c0-1.4,0-2.3,0.8-3.1c0.6-0.6,1.3-0.8,2.1-0.8c1.4,0,2.4,0.8,2.8,2.1l0,0.1h-1.3l0,0c-0.2-0.6-0.8-1-1.4-1
				c-0.4,0-0.8,0.2-1.1,0.5c-0.4,0.4-0.5,0.8-0.5,2.4c0,1.5,0.1,2,0.5,2.4c0.3,0.3,0.7,0.5,1.1,0.5c0.7,0,1.2-0.4,1.4-1H50.5z"/>
			<path class="st2" d="M62.5,15.9c0.2,0.6,0.8,1.1,1.7,1.1c0.8,0,1.3-0.6,1.3-1.3c0-0.7-1-0.9-1.7-1.2c-1.1-0.4-2.2-0.8-2.2-2.2
				c0-1.6,1.3-2.2,2.5-2.2c2.5,0,2.7,2.2,2.7,2.2h-1.3c0,0-0.1-1.1-1.4-1.1c-0.3,0-1.2,0.2-1.3,1.1c0,0.8,1.2,1.1,2.1,1.4
				c1.2,0.4,1.9,0.9,1.9,2.1c0,0.7-0.3,1.1-0.7,1.5c-0.6,0.6-1.6,0.8-2.1,0.8c-2.1,0-2.7-1.5-2.8-2.2H62.5z"/>
			<path class="st2" d="M72,11.3c0.8,0,1.4,0.3,1.5,1.2c0,0.2,0.1,0.5,0.1,1h-3.1c0-1,0.1-1.4,0.4-1.7C71.2,11.4,71.6,11.3,72,11.3
				 M70,11L70,11c-0.8,0.8-0.8,1.6-0.8,3.1v0.1c0,1.4,0,2.3,0.8,3.1c0.6,0.6,1.3,0.8,2.1,0.8c1.4,0,2.4-0.8,2.7-2.1l0-0.1h-1.3
				l0,0.1c-0.3,0.6-0.8,0.9-1.4,0.9c-0.4,0-0.8-0.2-1.1-0.5c-0.3-0.4-0.4-0.8-0.4-1.9c0.1,0,3.2,0,3.2,0h1.2v-0.5
				c0-0.6,0-1.1-0.1-1.6c-0.1-1.8-1.3-2.4-2.8-2.4C71.2,10.1,70.5,10.4,70,11"/>
			<path class="st2" d="M57.2,14.1c-0.4,0.2-1,0.3-1.3,0.5c-0.8,0.3-1.9,0.5-1.8,1.4c0.1,0.6,0.5,1.1,1.5,1.1c0.7,0,1.3-0.4,1.7-1.2
				V14.1z M57.3,17.2c-0.4,0.5-0.9,0.9-1.7,0.9c-2.2,0.1-2.8-1.4-2.8-2.3c0-1.2,0.7-1.6,1.9-2.1c0.9-0.3,2.4-0.6,2.5-1.4
				c0.1-1-0.8-1.2-1.3-1.1c-1.2,0.1-1.4,1.1-1.4,1.1h-1.3c0,0,0.3-2.2,2.8-2.2c1.3,0,2.5,0.6,2.5,2.2l0,2.7c0,1.6,0.2,2.1,0.3,2.9
				h-1.3C57.4,17.7,57.3,17.2,57.3,17.2"/>
			<path class="st2" d="M75.7,30.8h0.2c0.2,0,0.3-0.1,0.3-0.2c0-0.1-0.1-0.2-0.3-0.2h-0.2V30.8z M75.9,30.2c0.3,0,0.5,0.1,0.5,0.3
				c0,0.2-0.1,0.3-0.3,0.3l0.3,0.6h-0.3l-0.2-0.5h-0.2v0.5h-0.3v-1.2H75.9z M75.2,30.2c-0.2,0.2-0.3,0.4-0.3,0.7
				c0,0.2,0.1,0.5,0.3,0.7c0.2,0.2,0.4,0.3,0.7,0.3c0.3,0,0.5-0.1,0.7-0.3c0.2-0.2,0.3-0.4,0.3-0.6c0-0.3-0.1-0.5-0.3-0.7
				c-0.2-0.2-0.4-0.3-0.7-0.3C75.6,29.9,75.4,30,75.2,30.2 M76.6,30.1c0.2,0.2,0.3,0.5,0.3,0.8c0,0.3-0.1,0.6-0.3,0.8
				c-0.2,0.2-0.5,0.3-0.8,0.3c-0.3,0-0.6-0.1-0.8-0.3c-0.2-0.2-0.3-0.5-0.3-0.8c0-0.3,0.1-0.6,0.3-0.8c0.2-0.2,0.5-0.3,0.8-0.3
				C76.1,29.7,76.4,29.9,76.6,30.1"/>
		</g>
	</g>
</g>
</svg>
