<svg version="1.1" id="Layer_1" xmlns="http://www.w3.org/2000/svg" xmlns:xlink="http://www.w3.org/1999/xlink" x="0px" y="0px"
	 viewBox="0 0 153.2 17" fill="FFF" style="enable-background:new 0 0 153.2 17;" xml:space="preserve">
<g>
	<path d="M140.9,0c-7,0-14.1,0-21.1,0c0,3.7,0,7.3,0.1,11c0,3.2,1.2,4.6,4.3,5.5c0.6,0.2,1.3,0.4,1.9,0.5c8.6,0,17.2,0,25.8,0
		c0.4,0,0.8-0.2,1.3-0.3c-1.7-1.1-3.3-2.2-5-3.2c-0.8-0.4-1.7-0.8-2.6-0.8c-4.9-0.1-9.8,0-14.8-0.1c-0.9,0-1.8-0.1-2.6-0.4
		c-0.6-0.2-0.9-1-1.4-1.5c0.1-0.1,0.2-0.3,0.3-0.4c6.6,0,13.2,0,19.9,0c0-1.8,0.1-3.5,0-5.2c-0.1-2.2-1.4-3.7-3.5-4.3
		C142.7,0.5,141.8,0.3,140.9,0z M127,4.1c2.1,0,4,0,5.9,0c1.8,0,3.7,0.1,5.5,0.2c1,0.1,1.9,0.6,1.9,1.9c-4.4,0-8.8,0-13.3,0
		C127,5.6,127,5,127,4.1z"/>
	<path d="M89.3,17c2.2,0,4.4,0,6.6,0c0-3.9,0-7.8,0-12.2c4.3,4.3,8.3,8.2,12.3,12.2c3.5,0,6.9,0,10.4,0c0-5.7,0-11.3,0-17
		c-2.2,0-4.4,0-6.6,0c0,3.9,0,7.9,0,11.8c-0.2,0.1-0.4,0.3-0.7,0.4c-1-1.2-1.9-2.4-2.9-3.5c-2.9-3-5.8-5.9-8.7-8.8
		c-3.5,0-6.9,0-10.4,0C89.3,5.7,89.3,11.3,89.3,17z"/>
	<path d="M27.4,0c-7,0-14.1,0-21.1,0c0,3.4,0,6.8,0,10.3c2.2,0,4.2,0,6.5,0c0-1.9,0-3.7,0-5.7c3,0,5.8,0,8.6,0c5,0,5.4,0.5,5.1,5.4
		c-0.1,1.3-0.6,2.1-1.9,2.3c-0.8,0.2-1.7,0.3-2.5,0.3c-4.9,0-9.8,0-14.8,0c-0.5,0-1.1,0-1.5,0.2c-2,1.3-3.9,2.8-5.8,4.2
		c9.1,0,18.2,0,27.4,0c0.5-0.1,0.9-0.2,1.4-0.3c3.1-0.7,4.3-2.3,4.4-5.4c0-2,0-4,0-6c0-2.4-1.2-3.9-3.5-4.6
		C28.8,0.4,28.1,0.2,27.4,0z"/>
	<path d="M54.4,17c2.1,0,4.2,0,6.3,0c0-5.7,0-11.3,0-17c-2.8,0-5.7,0-8.5,0c-3.2,2.5-6.4,5-9.6,7.5c-4,3.2-8,6.3-12.1,9.5
		c2.9,0,5.9,0,8.8,0c1.6-1.4,3.2-2.8,4.9-4c0.5-0.4,1.3-0.6,2-0.7c2.2-0.1,4.4,0,6.6,0c0-1.3,0-2.5,0-3.8c-0.8-0.1-1.5-0.1-2.7-0.2
		c1.6-1.2,2.8-2.1,4.3-3.3C54.4,9.4,54.4,13.2,54.4,17z"/>
	<path d="M80.5,0c-2.8,0-5.7,0-8.5,0c-1.1,1-2.3,2-3.4,2.9c-2.4,1.9-4.8,3.8-7.3,5.7c0.6,0.5,1.1,0.8,1.5,1.2
		c3.1,2.4,6.1,4.8,9.2,7.2c2.7,0,5.5,0,8.2,0c-0.7-0.6-1.4-1.3-2.1-1.8c-2.8-2.2-5.6-4.3-8.5-6.6C73.4,5.6,77,2.8,80.5,0z"/>
	<path d="M81.5,17c2.2,0,4.4,0,6.6,0c0-5.7,0-11.3,0-17c-2.2,0-4.4,0-6.6,0C81.5,5.7,81.5,11.3,81.5,17z"/>
</g>
</svg>
