<?xml version="1.0" encoding="utf-8"?>
<!-- Generator: Adobe Illustrator 19.1.0, SVG Export Plug-In . SVG Version: 6.00 Build 0)  -->
<svg version="1.1" id="Layer_1" xmlns="http://www.w3.org/2000/svg" xmlns:xlink="http://www.w3.org/1999/xlink" x="0px" y="0px"
	 viewBox="0 0 123.6 40" style="enable-background:new 0 0 123.6 40;" xml:space="preserve">
<style type="text/css">
	.st0{fill:#00A9B4;}
</style>
<g>
	<path class="st0" d="M41.9,35.9c0,0,16.2-4.5,34.8-2.5c18.6,1.9,27.3,6.5,46.8,6.2c-19,1.6-34.3-2.6-46.5-4
		C57.8,33.4,43.4,35.7,41.9,35.9"/>
	<path d="M57.1,9.6c0,0.4-0.1,0.8-0.4,1c-0.2,0.3-0.6,0.4-1,0.4c0,0-0.2,0-0.5-0.1c-0.4-0.1-0.8-0.2-1.2-0.3c0.7,3.1,1,5.7,1,7.8
		c0,3.8-0.7,6.7-2.1,8.6c-1.4,2-3.5,2.9-6.2,2.9c-1.8,0-3.3-0.6-4.3-1.8c-1-1.2-1.5-2.8-1.5-5c0-1.5,0.5-2.3,1.4-2.3
		c0.5,0,0.8,0.2,1,0.5c0.2,0.3,0.3,0.8,0.3,1.6c0,0.1,0,0.2,0,0.4c0,0.1,0,0.2,0,0.3c0,2.6,1.1,3.9,3.4,3.9c1.8,0,3.2-0.7,4.1-2.2
		c1-1.5,1.4-3.7,1.4-6.5c0-2.8-0.4-5.6-1.1-8.5c-1-0.2-1.9-0.4-2.7-0.4c-0.6,0-1.4,0.1-2.2,0.3c-0.9,0.2-1.4,0.3-1.6,0.3
		c-0.8,0-1.2-0.4-1.2-1.3c0-0.5,0.5-0.9,1.5-1.2c1-0.3,2.4-0.5,4.1-0.5c2.3,0,4.4,0.3,6.5,0.8C56.7,8.5,57.1,9,57.1,9.6"/>
	<path d="M57.1,9.6c0,0.4-0.1,0.8-0.4,1c-0.2,0.3-0.6,0.4-1,0.4c0,0-0.2,0-0.5-0.1c-0.4-0.1-0.8-0.2-1.2-0.3c0.7,3.1,1,5.7,1,7.8
		c0,3.8-0.7,6.7-2.1,8.6c-1.4,2-3.5,2.9-6.2,2.9c-1.8,0-3.3-0.6-4.3-1.8c-1-1.2-1.5-2.8-1.5-5c0-1.5,0.5-2.3,1.4-2.3
		c0.5,0,0.8,0.2,1,0.5c0.2,0.3,0.3,0.8,0.3,1.6c0,0.1,0,0.2,0,0.4c0,0.1,0,0.2,0,0.3c0,2.6,1.1,3.9,3.4,3.9c1.8,0,3.2-0.7,4.1-2.2
		c1-1.5,1.4-3.7,1.4-6.5c0-2.8-0.4-5.6-1.1-8.5c-1-0.2-1.9-0.4-2.7-0.4c-0.6,0-1.4,0.1-2.2,0.3c-0.9,0.2-1.4,0.3-1.6,0.3
		c-0.8,0-1.2-0.4-1.2-1.3c0-0.5,0.5-0.9,1.5-1.2c1-0.3,2.4-0.5,4.1-0.5c2.3,0,4.4,0.3,6.5,0.8C56.7,8.5,57.1,9,57.1,9.6z"/>
	<path d="M76.9,19.6c0-3.1-0.7-5.4-2.1-7c-1.4-1.6-3.3-2.4-5.9-2.4c-2.4,0-4.3,0.8-5.5,2.4c-1.3,1.6-1.9,3.9-1.9,6.9
		c0,2.7,0.7,4.8,2.1,6.4c1.4,1.6,3.2,2.4,5.5,2.4c2.4,0,4.3-0.8,5.7-2.3C76.2,24.4,76.9,22.3,76.9,19.6 M79.5,19.5
		c0,3.5-1,6.2-2.9,8.2c-1.9,2-4.5,2.9-7.8,2.9c-2.9,0-5.3-1-7.2-3c-1.8-2-2.7-4.6-2.7-8c0-3.5,0.8-6.4,2.4-8.5
		c1.7-2.3,4.3-3.5,7.6-3.5c3.3,0,5.9,1,7.8,3.1C78.6,12.8,79.5,15.7,79.5,19.5"/>
	<path d="M76.9,19.6c0-3.1-0.7-5.4-2.1-7c-1.4-1.6-3.3-2.4-5.9-2.4c-2.4,0-4.3,0.8-5.5,2.4c-1.3,1.6-1.9,3.9-1.9,6.9
		c0,2.7,0.7,4.8,2.1,6.4c1.4,1.6,3.2,2.4,5.5,2.4c2.4,0,4.3-0.8,5.7-2.3C76.2,24.4,76.9,22.3,76.9,19.6z M79.5,19.5
		c0,3.5-1,6.2-2.9,8.2c-1.9,2-4.5,2.9-7.8,2.9c-2.9,0-5.3-1-7.2-3c-1.8-2-2.7-4.6-2.7-8c0-3.5,0.8-6.4,2.4-8.5
		c1.7-2.3,4.3-3.5,7.6-3.5c3.3,0,5.9,1,7.8,3.1C78.6,12.8,79.5,15.7,79.5,19.5z"/>
	<path d="M100.2,8.4c0,0.6-0.6,1.8-1.8,3.6c-2.2,3.4-4.8,6.2-7.7,8.4l0,0V22c0,0.7,0,1.6,0,2.6c0,1,0,1.7,0,2c0,1.7-0.1,2.8-0.2,3.3
		c-0.2,0.7-0.6,1.1-1.2,1.1c-0.8,0-1.1-0.6-1.1-1.9c0-0.1,0-0.7,0.1-1.8c0-1.1,0-2.2,0-3.2v-3.2c-1.3-1.2-2.7-3.2-4.3-5.8
		c-1.7-3-2.5-5.2-2.5-6.6c0-0.9,0.4-1.3,1.2-1.3c0.5,0,0.9,0.2,1,0.5c0.1,0.2,0.3,0.7,0.4,1.4c0.2,0.8,0.4,1.4,0.6,1.9
		c1.1,2.8,2.6,5.4,4.7,7.5c2.9-2.3,5.4-5.4,7.5-9.1c0.3-0.6,0.6-1.1,1-1.7c0.3-0.4,0.6-0.6,1-0.6c0.4,0,0.7,0.1,0.9,0.4
		C100.1,7.8,100.2,8.1,100.2,8.4"/>
	<path d="M100.2,8.4c0,0.6-0.6,1.8-1.8,3.6c-2.2,3.4-4.8,6.2-7.7,8.4l0,0V22c0,0.7,0,1.6,0,2.6c0,1,0,1.7,0,2c0,1.7-0.1,2.8-0.2,3.3
		c-0.2,0.7-0.6,1.1-1.2,1.1c-0.8,0-1.1-0.6-1.1-1.9c0-0.1,0-0.7,0.1-1.8c0-1.1,0-2.2,0-3.2v-3.2c-1.3-1.2-2.7-3.2-4.3-5.8
		c-1.7-3-2.5-5.2-2.5-6.6c0-0.9,0.4-1.3,1.2-1.3c0.5,0,0.9,0.2,1,0.5c0.1,0.2,0.3,0.7,0.4,1.4c0.2,0.8,0.4,1.4,0.6,1.9
		c1.1,2.8,2.6,5.4,4.7,7.5c2.9-2.3,5.4-5.4,7.5-9.1c0.3-0.6,0.6-1.1,1-1.7c0.3-0.4,0.6-0.6,1-0.6c0.4,0,0.7,0.1,0.9,0.4
		C100.1,7.8,100.2,8.1,100.2,8.4z"/>
	<path d="M116,21.7c-1.3-2.9-2.5-5.9-3.5-9.2c-1.2,2.7-2.7,5.1-4.5,7.4C110.6,20.9,113.3,21.5,116,21.7 M122.5,29
		c0,0.8-0.4,1.2-1.2,1.2c-0.5,0-1.1-0.5-1.8-1.5c-0.5-0.8-1.3-2.3-2.3-4.5c-3.2,0-6.7-0.8-10.7-2.2c-3.2,3.3-5.3,5-6.5,5
		c-0.3,0-0.6-0.1-0.8-0.3c-0.2-0.2-0.3-0.5-0.3-0.8c0-0.3,0.3-0.7,0.8-1.2c0.6-0.4,1.1-0.9,1.6-1.3c0.9-0.7,1.8-1.6,2.7-2.4
		c-1.4-0.6-2.1-1.1-2.1-1.7c0-0.3,0.1-0.6,0.3-0.9c0.2-0.2,0.5-0.4,0.8-0.4c0.3,0,0.6,0.1,1.1,0.3c0.9,0.4,1.4,0.6,1.6,0.7
		c3.3-4.4,5.2-7.6,5.6-9.6c0.1-0.7,0.2-1.4,0.4-2.1c0.2-0.5,0.6-0.8,1.2-0.8c0.5,0,0.8,0.2,1,0.6c0.1,0.2,0.2,0.6,0.2,1.1
		c0.1,0.6,0.1,1.1,0.2,1.3c0.8,3.2,2.3,7.2,4.6,12.1c0.4,0,0.8,0,1.1-0.1l0.5,0c0.9,0,1.4,0.4,1.4,1.2c0,0.9-0.5,1.3-1.4,1.3H120
		c0.3,0.7,0.9,1.7,1.7,3C122.2,28.1,122.5,28.7,122.5,29"/>
	<path d="M116,21.7c-1.3-2.9-2.5-5.9-3.5-9.2c-1.2,2.7-2.7,5.1-4.5,7.4C110.6,20.9,113.3,21.5,116,21.7z M122.5,29
		c0,0.8-0.4,1.2-1.2,1.2c-0.5,0-1.1-0.5-1.8-1.5c-0.5-0.8-1.3-2.3-2.3-4.5c-3.2,0-6.7-0.8-10.7-2.2c-3.2,3.3-5.3,5-6.5,5
		c-0.3,0-0.6-0.1-0.8-0.3c-0.2-0.2-0.3-0.5-0.3-0.8c0-0.3,0.3-0.7,0.8-1.2c0.6-0.4,1.1-0.9,1.6-1.3c0.9-0.7,1.8-1.6,2.7-2.4
		c-1.4-0.6-2.1-1.1-2.1-1.7c0-0.3,0.1-0.6,0.3-0.9c0.2-0.2,0.5-0.4,0.8-0.4c0.3,0,0.6,0.1,1.1,0.3c0.9,0.4,1.4,0.6,1.6,0.7
		c3.3-4.4,5.2-7.6,5.6-9.6c0.1-0.7,0.2-1.4,0.4-2.1c0.2-0.5,0.6-0.8,1.2-0.8c0.5,0,0.8,0.2,1,0.6c0.1,0.2,0.2,0.6,0.2,1.1
		c0.1,0.6,0.1,1.1,0.2,1.3c0.8,3.2,2.3,7.2,4.6,12.1c0.4,0,0.8,0,1.1-0.1l0.5,0c0.9,0,1.4,0.4,1.4,1.2c0,0.9-0.5,1.3-1.4,1.3H120
		c0.3,0.7,0.9,1.7,1.7,3C122.2,28.1,122.5,28.7,122.5,29z"/>
	<path class="st0" d="M0.5,27.2c0,0,1.6-0.9,3.2-0.8c1.4,0.1,2.8,1.2,3.2,1.2"/>
	<path class="st0" d="M1.5,24.3c0,0,1.5,0.6,2.4,1c1,0.3,2.5,2,2.9,2.1"/>
	<path class="st0" d="M1.6,27.1c0,0.4-0.3,0.6-0.7,0.6c-0.4,0-0.7-0.3-0.7-0.6c0-0.4,0.3-0.6,0.7-0.6C1.3,26.5,1.6,26.7,1.6,27.1"/>
	<path class="st0" d="M1.6,27.1c0,0.4-0.3,0.6-0.7,0.6c-0.4,0-0.7-0.3-0.7-0.6c0-0.4,0.3-0.6,0.7-0.6C1.3,26.5,1.6,26.7,1.6,27.1z"
		/>
	<path class="st0" d="M1.9,24c0,0.4-0.3,0.6-0.7,0.6c-0.4,0-0.7-0.3-0.7-0.6c0-0.4,0.3-0.6,0.7-0.6C1.6,23.4,1.9,23.7,1.9,24"/>
	<ellipse class="st0" cx="1.2" cy="24" rx="0.7" ry="0.6"/>
	<path class="st0" d="M8.9,26.5c0,0.9-0.8,1.6-1.7,1.6c-0.9,0-1.7-0.7-1.7-1.6c0-0.9,0.8-1.6,1.7-1.6C8.1,24.9,8.9,25.6,8.9,26.5"/>
	<ellipse class="st0" cx="7.2" cy="26.5" rx="1.7" ry="1.6"/>
	<path class="st0" d="M25.1,17c-1.4,0.9-3.1,0.7-3.9-0.4c-0.8-1.1-0.3-2.8,1-3.7c1.3-0.9,3.1-0.7,3.9,0.4C27,14.4,26.5,16,25.1,17
		 M12,12.7c-0.8,0-1.4-0.8-1.4-1.7c0-0.9,0.6-1.7,1.4-1.7c0.8,0,1.4,0.8,1.4,1.7C13.5,11.9,12.8,12.7,12,12.7 M8.4,9
		C7.5,9,6.8,8.1,6.8,7.1c0-1,0.7-1.9,1.6-1.9c0.9,0,1.6,0.8,1.6,1.9C10,8.1,9.3,9,8.4,9 M4.5,5.6c-1,0-1.8-1-1.8-2.2
		c0-1.2,0.8-2.2,1.8-2.2c1,0,1.8,1,1.8,2.2C6.3,4.6,5.5,5.6,4.5,5.6 M29.6,18.5c1.3-1,0.1-3.1-0.4-3.8C28.6,14,30,12,30,10.6
		c1.5-6.4-12.1-1.2-14.3,3.4c0.1,0.1,0.1,0.3,0.1,0.5c0,0.6-0.4,1.1-0.9,1.1c-0.5,0-0.9-0.5-0.9-1.1c0-0.6,0.4-1.1,0.9-1.1
		c0.3,0,0.6,0.2,0.8,0.5c0-2-0.7-4.8-4-6.1C-1.5-13.2-2.7,14.1,4.1,20.4C5.3,22.9,6.2,25,6.2,25l1.9,1.7c0,0,0.4,1,1.6,2.2
		c1.5,2.3,6.2-0.4,7.4,1c0.9,0.9,0-0.5,0-1.4c-1-0.2-2.3-0.4-3-0.6c-1.2-0.4-3-1.2-4.1-2.2c-0.4-0.4-1-0.6-1.5-0.7
		c-0.3-0.1-0.5-0.1-0.7-0.2C7.9,25.2,8,25.4,8,25.4l-1.2-0.4c0,0-3.2-8,1.4-14.8c0.5-0.7,1.1,0.5,1.2,1.1c0,0.7-0.1,1,1.8,1.8
		c1.9,0.7,3.9,2.9,2.7,3.2c-1.2,0.3-4.3,2.7-5.4,5.3c-0.6,1.3-0.7,2.2-0.7,2.8c0.2,0.1,0.5,0.2,0.8,0.3c0.5,0.1,1.1,0.3,1.6,0.8
		c1,0.9,2.8,1.8,4,2.1c0.7,0.2,2,0.4,3,0.6c0.1-0.2,0.4-0.3,0.8-0.1c1,0.3,3.5,0.9,5.4,0.5c2.3-0.4,3.9-2,5.6-2.7
		c3-1.2,0.9-2.2,1.7-2.3c0.8,0,2-1.2,2-2C32.7,20.8,21.5,20.7,29.6,18.5"/>
	<path class="st0" d="M25.1,17c-1.4,0.9-3.1,0.7-3.9-0.4c-0.8-1.1-0.3-2.8,1-3.7c1.3-0.9,3.1-0.7,3.9,0.4C27,14.4,26.5,16,25.1,17z
		 M12,12.7c-0.8,0-1.4-0.8-1.4-1.7c0-0.9,0.6-1.7,1.4-1.7c0.8,0,1.4,0.8,1.4,1.7C13.5,11.9,12.8,12.7,12,12.7z M8.4,9
		C7.5,9,6.8,8.1,6.8,7.1c0-1,0.7-1.9,1.6-1.9c0.9,0,1.6,0.8,1.6,1.9C10,8.1,9.3,9,8.4,9z M4.5,5.6c-1,0-1.8-1-1.8-2.2
		c0-1.2,0.8-2.2,1.8-2.2c1,0,1.8,1,1.8,2.2C6.3,4.6,5.5,5.6,4.5,5.6z M29.6,18.5c1.3-1,0.1-3.1-0.4-3.8C28.6,14,30,12,30,10.6
		c1.5-6.4-12.1-1.2-14.3,3.4c0.1,0.1,0.1,0.3,0.1,0.5c0,0.6-0.4,1.1-0.9,1.1c-0.5,0-0.9-0.5-0.9-1.1c0-0.6,0.4-1.1,0.9-1.1
		c0.3,0,0.6,0.2,0.8,0.5c0-2-0.7-4.8-4-6.1C-1.5-13.2-2.7,14.1,4.1,20.4C5.3,22.9,6.2,25,6.2,25l1.9,1.7c0,0,0.4,1,1.6,2.2
		c1.5,2.3,6.2-0.4,7.4,1c0.9,0.9,0-0.5,0-1.4c-1-0.2-2.3-0.4-3-0.6c-1.2-0.4-3-1.2-4.1-2.2c-0.4-0.4-1-0.6-1.5-0.7
		c-0.3-0.1-0.5-0.1-0.7-0.2C7.9,25.2,8,25.4,8,25.4l-1.2-0.4c0,0-3.2-8,1.4-14.8c0.5-0.7,1.1,0.5,1.2,1.1c0,0.7-0.1,1,1.8,1.8
		c1.9,0.7,3.9,2.9,2.7,3.2c-1.2,0.3-4.3,2.7-5.4,5.3c-0.6,1.3-0.7,2.2-0.7,2.8c0.2,0.1,0.5,0.2,0.8,0.3c0.5,0.1,1.1,0.3,1.6,0.8
		c1,0.9,2.8,1.8,4,2.1c0.7,0.2,2,0.4,3,0.6c0.1-0.2,0.4-0.3,0.8-0.1c1,0.3,3.5,0.9,5.4,0.5c2.3-0.4,3.9-2,5.6-2.7
		c3-1.2,0.9-2.2,1.7-2.3c0.8,0,2-1.2,2-2C32.7,20.8,21.5,20.7,29.6,18.5z"/>
</g>
</svg>
