<svg version="1.1" id="Layer_1" xmlns="http://www.w3.org/2000/svg" xmlns:xlink="http://www.w3.org/1999/xlink" x="0px" y="0px"
	 viewBox="0 0 551.4 250" style="enable-background:new 0 0 551.4 250;" xml:space="preserve">
<g>
	<g>
		<path class="st0" d="M179.4,32.3c-2.4,0.4-4.9,0.8-7.3,1.3c-3.6,0.7-7.1,1.4-10.6,2.2c-3.5,0.8-6.9,1.6-10.3,2.4
			c-3.4,0.8-6.8,1.6-10,2.5c-3.3,0.9-6.5,1.7-9.7,2.6c-3.2,0.8-6.3,1.8-9.4,2.8c-3,1-6.1,1.8-9,2.8c-2.9,1-5.8,2-8.6,2.9
			c-1.4,0.5-2.8,1-4.2,1.4c-1.4,0.5-2.7,1-4,1.5c-2.7,1-5.3,1.9-7.8,2.9c-2.5,0.9-4.9,2-7.3,3c-2.4,1-4.6,2-6.9,2.9
			C65.6,67.4,58,71,51.9,74.2c-6.2,3-10.8,5.8-14.1,7.6c-3.2,1.8-4.9,2.8-4.9,2.8s1.8-0.8,5.1-2.3c1.7-0.8,3.7-1.7,6.1-2.8
			c0.6-0.3,1.2-0.6,1.9-0.9c0.7-0.3,1.3-0.6,2-0.9c1.4-0.6,2.9-1.2,4.5-1.9c6.3-2.7,14-5.7,23-9c2.2-0.8,4.6-1.6,7-2.4
			c2.4-0.8,4.8-1.7,7.4-2.5c2.5-0.8,5.2-1.7,7.8-2.5c1.3-0.4,2.7-0.9,4.1-1.3c1.4-0.4,2.8-0.8,4.2-1.2c2.8-0.8,5.7-1.6,8.6-2.5
			c2.9-0.9,6-1.6,9-2.4c3.1-0.8,6.2-1.7,9.3-2.4c3.2-0.7,6.4-1.5,9.7-2.2c3.3-0.8,6.6-1.4,10-2.1c3.4-0.7,6.8-1.4,10.3-2
			c7-1.2,14-2.6,21.3-3.5c0.1,0,0.1,0,0.2,0L179.4,32.3z"/>
		<path class="st0" d="M513.5,81.8c-3.2-1.8-7.8-4.5-14-7.6c-6.1-3.2-13.7-6.8-22.5-10.6c-2.2-0.9-4.5-1.9-6.9-2.9
			c-2.4-1-4.8-2-7.3-3c-2.5-1-5.1-1.9-7.8-2.9c-1.3-0.5-2.7-1-4-1.5c-1.4-0.5-2.8-0.9-4.2-1.4c-2.8-1-5.7-1.9-8.6-2.9
			c-2.9-1-5.9-1.9-9-2.8c-3.1-0.9-6.2-1.9-9.4-2.8c-3.2-0.9-6.4-1.7-9.7-2.6c-3.3-0.9-6.6-1.7-10-2.5c-3.4-0.8-6.8-1.7-10.3-2.4
			c-3.5-0.7-7-1.5-10.6-2.2c-2.4-0.5-4.8-0.9-7.3-1.3l-5,7.4c0.1,0,0.1,0,0.2,0c7.3,1,14.3,2.3,21.3,3.5c3.5,0.6,6.9,1.4,10.3,2
			c3.4,0.7,6.7,1.3,10,2.1c3.3,0.8,6.5,1.5,9.7,2.2c3.2,0.7,6.3,1.6,9.3,2.4c3.1,0.8,6.1,1.5,9,2.4c2.9,0.8,5.8,1.7,8.6,2.5
			c1.4,0.4,2.8,0.8,4.2,1.2c1.4,0.4,2.7,0.9,4.1,1.3c2.7,0.9,5.3,1.7,7.8,2.5c2.6,0.8,5,1.7,7.4,2.5c2.4,0.8,4.7,1.7,7,2.4
			c8.9,3.3,16.7,6.3,23,9c1.6,0.7,3.1,1.3,4.5,1.9c0.7,0.3,1.4,0.6,2,0.9c0.6,0.3,1.3,0.6,1.9,0.9c2.4,1.1,4.5,2,6.1,2.8
			c3.3,1.5,5.1,2.3,5.1,2.3S516.7,83.6,513.5,81.8z"/>
	</g>
	<g>
		<path class="st0" d="M100.1,181.3L76,97.3l14.3-4.1c9.6-2.7,19.7,2.9,22.4,12.4l3,10.3c1.7,5.8,0.2,11.9-3.3,16.3
			c5.3,2,9.7,6.2,11.4,12.1l3,10.5c2.7,9.6-2.9,19.7-12.4,22.4L100.1,181.3z M101.4,131.9c6.1-1.7,9.6-8,7.8-14.1l-3-10.3
			c-1.7-6.1-8-9.6-14.1-7.8l-7.8,2.2l9.2,32.2L101.4,131.9z M117.4,146.2c-1.7-6.1-8-9.6-14.1-7.8l-7.8,2.2l9.3,32.4l7.8-2.2
			c6.1-1.7,9.6-8,7.8-14.1L117.4,146.2z"/>
		<path class="st0" d="M173.1,163.6l-6.6,1.3l-7.9-21.3l-17.4,3.5l1.1,22.6l-6.6,1.3l-4.3-88.3l11.2-2.3L173.1,163.6z M141,140.4
			l15.4-3.1l-17.6-48.2l-0.3,0.1L141,140.4z"/>
		<path class="st0" d="M198.3,101.7l-1.8-13.6c-0.7-5.5-5.8-9.4-11.3-8.7s-9.4,5.8-8.7,11.3l7.2,55.9c0.7,5.5,5.8,9.4,11.3,8.7
			c5.5-0.7,9.4-5.8,8.7-11.3l-1.5-11.8l6.7-0.9l1.5,11.8c1.2,9.2-5.3,17.7-14.5,18.8c-9.2,1.2-17.7-5.3-18.8-14.5l-7.2-55.9
			c-1.2-9.2,5.3-17.7,14.5-18.8c9.2-1.2,17.7,5.3,18.8,14.5l1.7,12.8L198.3,101.7z"/>
		<path class="st0" d="M216.5,70.5l6.7-0.4l2.4,40.2l6.5-0.4l12.2-41.1l6.7-0.4l-13.4,44.5l18.7,42.7l-6.7,0.4l-17-39.4l-6.5,0.4
			l2.4,40.3l-6.7,0.4L216.5,70.5z"/>
		<path class="st0" d="M270,117.5l-0.3,38.1l-6.7-0.1l0.7-87.4l14.9,0.1c10,0.1,18.1,8.3,18,18.3l-0.1,13.1
			c-0.1,10-8.3,18.1-18.3,18L270,117.5z M278.2,110.9c6.3,0.1,11.4-5,11.5-11.3l0.1-13.1c0.1-6.3-5-11.4-11.3-11.5l-8.2-0.1
			l-0.3,35.9L278.2,110.9z"/>
		<path class="st0" d="M335,158.1l-6.7-0.4l-2.1-22.6l-17.7-1.1l-4.8,22.1l-6.7-0.4l18.8-86.4l11.4,0.7L335,158.1z M310,127.3
			l15.6,1l-4.5-51.1l-0.3,0L310,127.3z"/>
		<path class="st0" d="M375.3,104.6L377,91c0.7-5.5-3.2-10.6-8.7-11.3c-5.5-0.7-10.6,3.2-11.3,8.7l-7.3,55.8
			c-0.7,5.5,3.2,10.6,8.7,11.3c5.5,0.7,10.6-3.2,11.3-8.7l1.5-11.8l6.7,0.9l-1.5,11.8c-1.2,9.2-9.6,15.7-18.9,14.5
			c-9.2-1.2-15.7-9.6-14.5-18.9l7.3-55.8c1.2-9.2,9.6-15.7,18.9-14.5c9.2,1.2,15.7,9.6,14.5,18.9l-1.7,12.8L375.3,104.6z"/>
		<path class="st0" d="M401.2,79.1l6.6,1.4l-8.1,39.4l6.3,1.3l22.4-36.5L435,86l-24.5,39.5l6.9,46.1l-6.6-1.4l-6.2-42.5l-6.3-1.3
			l-8.1,39.6l-6.6-1.4L401.2,79.1z"/>
		<path class="st0" d="M440.2,120.7c0,0-2.4-5.6-0.7-11.5l1.6-5.6c2.6-9,11.9-14.1,20.8-11.5c9,2.6,14.1,11.9,11.5,20.8l-3,10.4
			l-6.7-1.1l3.2-11.2c1.5-5.3-1.6-11-6.9-12.5c-5.3-1.5-11,1.6-12.5,6.9l-1.6,5.6c-1,3.6,0.4,6.9,0.4,6.9l13,29.2
			c0,0,2.5,5.7,0.8,11.8l-2.3,8.1c-2.6,9-11.9,14.1-20.8,11.5c-9-2.6-14.1-11.9-11.5-20.8l3.6-12.3l6.7,1.1l-3.8,13.1
			c-1.5,5.3,1.6,11,6.9,12.5c5.3,1.5,11-1.6,12.5-6.9l2.3-8.1c1-3.6-0.5-7.2-0.5-7.2L440.2,120.7z"/>
	</g>
	<g>
		<path class="st0" d="M128.7,238.9v-28.6c1.1-0.2,2.8-0.5,5-0.7c2.3-0.2,4.4-0.3,6.5-0.3c4.2,0,7.2,0.7,9,2
			c1.8,1.4,2.7,3.5,2.7,6.5v21H128.7z M145.1,233.6v-15.8c0-1.4-0.5-2.3-1.6-2.7c-0.9-0.4-2.3-0.6-4.1-0.6c-1,0-2.3,0.1-3.7,0.2
			v18.9H145.1z"/>
		<path class="st0" d="M158.8,229v-19.3h6.9v13.5l-4.6,5.8H158.8z"/>
		<path class="st0" d="M186.8,209.3c2.4,0,4.3,0.5,5.7,1.4c2.9,1.8,4.4,6.4,4.4,13.7c0,4.8-1.1,8.6-3.2,11.1
			c-2.2,2.6-5.3,3.9-9.3,3.9c-1.7,0-3.2-0.3-4.7-1c-1.4-0.7-2.7-1.6-3.8-2.9c-1.1-1.2-1.9-2.8-2.6-4.7c-0.6-1.9-0.9-4.1-0.9-6.4
			v-14.5h6.9v14.5c0,3.2,0.4,5.5,1.3,7.1c0.8,1.6,2.2,2.4,4,2.4c1.8,0,3.1-0.7,4-2.2c0.9-1.5,1.3-3.9,1.3-7.2c0-3.2-0.2-5.6-0.7-7
			c-0.4-1.3-1.2-2-2.4-2.3c-0.5-0.1-1.2-0.2-2-0.2l-1.4,0.1v-5.1C184.3,209.5,185.5,209.3,186.8,209.3z"/>
		<path class="st0" d="M209.4,238.9h-6.9v-29.1h6.9V238.9z"/>
		<path class="st0" d="M234,238.1v0.8h-6.8v-0.8c0-1.2,0.2-2.9,0.6-5c0.4-2.1,0.9-4,1.4-5.6l4.5-12.5h-17v-5.3h24.6v4.2l-4.9,13.3
			C234.7,231.4,234,235.1,234,238.1z M223,250h-6.4v-28.6h6.4V250z"/>
		<path class="st0" d="M251,209.7h15.3v4.5l-4,13.8l-2.4,10.8h-6.7l2.4-10.8l3.7-13h-15.3v-11.3h6.9V209.7z"/>
		<path class="st0" d="M271.1,229v-19.3h6.9v13.5l-4.6,5.8H271.1z"/>
		<path class="st0" d="M291.6,238.9h-6.9v-29.1h6.9V238.9z"/>
		<path class="st0" d="M310.8,238.9v-28.6c1.1-0.2,2.8-0.5,5-0.7c2.3-0.2,4.4-0.3,6.5-0.3c4.2,0,7.2,0.7,9,2
			c1.8,1.4,2.7,3.5,2.7,6.5v21H310.8z M327.2,233.6v-15.8c0-1.4-0.5-2.3-1.6-2.7c-0.9-0.4-2.3-0.6-4.1-0.6c-1,0-2.3,0.1-3.7,0.2
			v18.9H327.2z"/>
		<path class="st0" d="M340.9,229v-19.3h6.9v13.5l-4.6,5.8H340.9z"/>
		<path class="st0" d="M371.9,238.1v0.8h-6.8v-0.8c0-1.2,0.2-2.9,0.6-5c0.4-2.1,0.9-4,1.4-5.6l4.5-12.5h-17v-5.3h24.6v4.2l-4.9,13.3
			C372.7,231.4,371.9,235.1,371.9,238.1z M361,250h-6.4v-28.6h6.4V250z"/>
		<path class="st0" d="M383.9,229v-19.3h6.9v13.5l-4.6,5.8H383.9z"/>
		<path class="st0" d="M402.3,238.9c-1,0.3-2.2,0.5-3.4,0.5s-2.4-0.2-3.4-0.6v-5.2c1,0.3,1.8,0.4,2.4,0.4c0.6,0,1-0.1,1.4-0.3
			c0.4-0.2,0.6-0.5,0.8-0.9c0.3-0.7,0.5-1.5,0.5-2.4v-15.1l-3.3,0.3v-5.2c4.6-0.6,9.2-1,13.8-1c3.4,0,5.9,0.4,7.6,1.3
			c0.9,0.4,1.6,0.9,2.1,1.5c0.5,0.6,1,1.3,1.3,2.1c0.3,0.8,0.5,1.7,0.6,2.6c0.1,0.9,0.2,1.9,0.2,3.1v19h-6.9v-19.1
			c0-3.5-1.9-5.2-5.7-5.2c-0.8,0-1.8,0-2.8,0.1v15.6c0,3.5-0.9,5.9-2.6,7.4C404.2,238.1,403.3,238.6,402.3,238.9z"/>
	</g>
	<path class="st0" d="M106.5,234.8l-93.9-8.4l93.9-8.4c4.9-0.4,9.2,3.5,9.2,8.4v0C115.7,231.4,111.5,235.3,106.5,234.8z"/>
	<path class="st0" d="M444.9,218l93.9,8.4l-93.9,8.4c-4.9,0.4-9.2-3.5-9.2-8.4v0C435.7,221.4,439.9,217.5,444.9,218z"/>
	<polygon class="st0" points="20.1,132.2 37.5,151.8 60.9,140.2 47.7,162.7 66,181.4 40.4,175.8 28.3,199 25.8,172.9 0,168.6 
		24,158.1 	"/>
	<polygon class="st0" points="531.3,132.2 513.9,151.8 490.5,140.2 503.8,162.7 485.5,181.4 511,175.8 523.1,199 525.6,172.9 
		551.4,168.6 527.5,158.1 	"/>
	<polygon class="st0" points="275.7,0 281.3,18.6 300.7,18.1 284.7,29.2 291.1,47.5 275.7,35.7 260.3,47.5 266.7,29.2 250.7,18.1 
		270.2,18.6 	"/>
	<polygon class="st0" points="208.4,17.4 213.7,30.9 228.1,29.2 217,38.4 222.9,51.6 210.7,43.9 200.1,53.6 203.7,39.6 191.1,32.5 
		205.5,31.6 	"/>
	<polygon class="st0" points="343,17.4 337.7,30.9 323.3,29.2 334.5,38.4 328.5,51.6 340.7,43.9 351.4,53.6 347.8,39.6 360.3,32.5 
		345.9,31.6 	"/>
</g>
</svg>
