<svg style="position: absolute; width: 0; height: 0;" width="0" height="0" version="1.1" xmlns="http://www.w3.org/2000/svg" xmlns:xlink="http://www.w3.org/1999/xlink">
<defs>
<symbol id="cart" viewBox="0 0 34 32">
<path class="path1" d="M30.944 14.944h-1.76l-7.904-11.904c0.16-0.32 0.16-0.64 0.16-0.96 0-1.12-0.96-2.080-2.080-2.080s-2.080 0.96-2.080 2.080c0 1.12 0.96 2.080 2.080 2.080h0.16l7.232 10.784h-19.136l7.232-10.784c0 0 0 0 0.16 0 1.12 0 2.080-0.96 2.080-2.080s-0.96-2.080-2.080-2.080c-1.12 0-2.080 0.96-2.080 2.080 0 0.32 0.16 0.64 0.16 0.96l-7.872 11.904h-1.76c-2.56 0-4.032 1.92-3.232 4.352l4.032 9.664c0.8 2.4 3.552 3.040 6.112 3.040h13.824c2.56 0 5.312-0.8 6.112-3.040l4.032-9.664c0.448-2.24-0.992-4.352-3.392-4.352zM8.576 26.848c0 0.64-0.48 1.12-1.12 1.12s-1.12-0.48-1.12-1.12v-6.432c0-0.64 0.48-1.12 1.12-1.12s1.12 0.48 1.12 1.12v6.432zM15.008 26.848c0 0.64-0.48 1.12-1.12 1.12s-1.12-0.48-1.12-1.12v-6.432c0-0.64 0.48-1.12 1.12-1.12s1.12 0.48 1.12 1.12v6.432zM21.44 26.848c0 0.64-0.48 1.12-1.12 1.12s-1.12-0.48-1.12-1.12v-6.432c0-0.64 0.48-1.12 1.12-1.12s1.12 0.48 1.12 1.12v6.432zM27.872 26.848c0 0.64-0.48 1.12-1.12 1.12s-1.12-0.48-1.12-1.12v-6.432c0-0.64 0.48-1.12 1.12-1.12s1.12 0.48 1.12 1.12v6.432z"></path>
</symbol>
<symbol id="facebook" viewBox="0 0 32 32">
<path class="path1" d="M16 0c-8.8 0-16 7.2-16 16s7.2 16 16 16 16-7.2 16-16-7.2-16-16-16zM20.256 15.744h-2.656c0 4.256 0 9.6 0 9.6h-4c0 0 0-5.344 0-9.6h-1.856v-3.488h1.856v-2.272c0-1.6 0.8-4 4-4h2.944v3.328c0 0-1.856 0-2.144 0-0.416 0-0.8 0.128-0.8 0.928v1.984h3.072l-0.416 3.52z"></path>
</symbol>
<symbol id="laptop" viewBox="0 0 47 32">
<path class="path1" d="M0.294 29.471c0.176 0.059 0.353 0.059 0.647 0.118 0.235 0 0.588 0.059 0.882 0.059h43.412c0.353 0 0.647 0 0.882-0.059 0.235 0 0.471-0.059 0.647-0.118s0.235-0.118 0.294-0.176c0.059-0.059 0-0.118-0.059-0.176l-5.588-4.059c-0.059-0.059-0.176-0.059-0.294-0.118s-0.294-0.059-0.471-0.059c-0.176 0-0.412-0.059-0.647-0.059s-0.471 0-0.706 0h-31.471c-0.235 0-0.471 0-0.706 0s-0.471 0-0.647 0.059c-0.176 0-0.353 0.059-0.471 0.059-0.118 0.059-0.235 0.059-0.294 0.118l-5.588 4.059c-0.118 0.059-0.118 0.176-0.118 0.235 0.059 0.059 0.176 0.059 0.294 0.118zM4.824 27.706l2.294-1.882c0 0 0.059 0 0.118-0.059 0.059 0 0.118 0 0.176 0s0.176 0 0.235 0c0.118 0 0.176 0.059 0.294 0.059h31.059c0.118 0 0.176-0.059 0.294-0.059s0.176 0 0.235 0c0.059 0 0.176 0 0.176 0.059 0.059 0 0.118 0 0.118 0.059l2.294 1.882c0.059 0 0.059 0.059 0.059 0.118 0 0-0.059 0.059-0.118 0.059s-0.176 0.059-0.235 0.059c-0.118 0-0.235 0.118-0.353 0.118h-35.941c-0.118 0-0.235-0.118-0.353-0.118s-0.176-0.118-0.235-0.118c-0.059 0-0.118-0.059-0.118-0.059-0.059-0.059-0.059-0.059 0-0.118z"></path>
<path class="path2" d="M7.235 24.059h32.529c1 0 1.824-0.824 1.824-1.824v-20.412c0-1-0.824-1.824-1.824-1.824h-32.529c-1 0-1.824 0.824-1.824 1.824v20.471c0.059 0.941 0.824 1.765 1.824 1.765zM23 1.059c0-0.294 0.235-0.471 0.471-0.471v0c0.294 0 0.471 0.235 0.471 0.471v0c0 0.294-0.235 0.471-0.471 0.471v0c-0.294 0-0.471-0.235-0.471-0.471v0zM7.647 3.647c0-0.824 0.647-1.471 1.471-1.471h28.882c0.824 0 1.471 0.647 1.471 1.471v17.118c0 0.824-0.647 1.471-1.471 1.471h-28.882c-0.824 0-1.471-0.647-1.471-1.471v-17.118z"></path>
<path class="path3" d="M27.118 30.059c-0.059 0.353-0.353 0.647-0.765 0.647h-5.353c-0.412 0-0.824-0.294-0.941-0.647h-20.059v0.176c0 1 0.824 1.765 1.824 1.765h43.471c1 0 1.824-0.765 1.824-1.765v-0.176h-20zM43.059 31.235h-2.294c-0.118 0-0.176-0.059-0.176-0.176s0.059-0.176 0.176-0.176h2.294c0.118 0 0.176 0.059 0.176 0.176s-0.059 0.176-0.176 0.176z"></path>
<path class="path4" d="M10.588 9.765h2.176v0.941h-3.353v-5.471h1.176v4.529z"></path>
<path class="path5" d="M18.294 10.706h-1.235l-0.412-1.294h-2l-0.412 1.294h-1.235l1.941-5.471h1.412l1.941 5.471zM16.353 8.412l-0.588-2c-0.059-0.176-0.059-0.294-0.118-0.353-0.059 0.294-0.294 1.118-0.706 2.353h1.412z"></path>
<path class="path6" d="M19 5.235h1.765c0.647 0 1.176 0.118 1.529 0.412s0.529 0.706 0.529 1.294c0 0.588-0.176 1-0.529 1.353s-0.882 0.471-1.529 0.471h-0.471v1.941h-1.176v-5.471zM20.118 6.235v1.588h0.353c0.706 0 1.059-0.294 1.059-0.824 0-0.294-0.059-0.471-0.235-0.588s-0.353-0.176-0.706-0.176h-0.471z"></path>
<path class="path7" d="M27.353 6.235h-1.471v4.471h-1.176v-4.471h-1.471v-1h4.118v1z"></path>
<path class="path8" d="M28.588 10.059c-0.471-0.471-0.647-1.176-0.647-2.059s0.235-1.588 0.647-2.059c0.471-0.471 1.118-0.706 1.941-0.706s1.471 0.235 1.941 0.706c0.471 0.471 0.647 1.176 0.647 2.059s-0.235 1.588-0.647 2.059c-0.471 0.471-1.059 0.706-1.941 0.706-0.824 0-1.471-0.235-1.941-0.706zM30.529 6.118c-0.471 0-0.824 0.176-1.059 0.471s-0.353 0.765-0.353 1.353c0 1.235 0.471 1.824 1.353 1.824 0.941 0 1.353-0.588 1.353-1.824 0.059-1.176-0.412-1.824-1.294-1.824z"></path>
<path class="path9" d="M34.235 5.235h1.765c0.647 0 1.176 0.118 1.529 0.412s0.529 0.706 0.529 1.294c0 0.588-0.176 1-0.529 1.353-0.353 0.294-0.882 0.471-1.529 0.471h-0.471v1.941h-1.176v-5.471zM35.412 6.235v1.588h0.353c0.706 0 1.059-0.294 1.059-0.824 0-0.294-0.059-0.471-0.235-0.588s-0.353-0.176-0.706-0.176h-0.471z"></path>
<path class="path10" d="M9.471 16.588c0.412 0.176 0.765 0.294 1.059 0.412 0.294 0.059 0.529 0.118 0.824 0.118s0.471-0.059 0.588-0.176c0.176-0.118 0.235-0.294 0.235-0.471 0-0.118-0.059-0.235-0.118-0.294-0.059-0.118-0.176-0.176-0.294-0.294s-0.412-0.235-0.765-0.412-0.647-0.353-0.824-0.529c-0.412-0.353-0.588-0.765-0.588-1.294s0.176-0.941 0.529-1.235c0.353-0.294 0.882-0.471 1.471-0.471 0.529 0 1.118 0.118 1.765 0.412l-0.412 1.059c-0.294-0.118-0.588-0.235-0.765-0.294-0.235-0.059-0.412-0.059-0.647-0.059s-0.412 0.059-0.529 0.176c-0.118 0.118-0.176 0.235-0.176 0.412 0 0.118 0 0.235 0.059 0.294s0.118 0.176 0.235 0.235c0.118 0.059 0.412 0.235 0.824 0.412 0.529 0.235 0.941 0.529 1.118 0.824 0.235 0.235 0.294 0.588 0.294 1 0 0.529-0.176 0.941-0.588 1.294-0.412 0.294-0.941 0.471-1.588 0.471s-1.235-0.118-1.706-0.353v-1.235z"></path>
<path class="path11" d="M15.706 17h2.412v1.059h-3.706v-6h1.294v4.941z"></path>
<path class="path12" d="M22.647 13.118h-2.176v1.294h2v1.059h-2v1.529h2.176v1.059h-3.471v-6h3.471v1.059z"></path>
<path class="path13" d="M27.353 13.118h-2.176v1.294h2v1.059h-2v1.529h2.176v1.059h-3.471v-6h3.471v1.059z"></path>
<path class="path14" d="M31.235 18.059h-1.412l-2.059-6h1.294l1.118 3.588c0.059 0.235 0.118 0.471 0.176 0.765 0.059 0.235 0.118 0.471 0.118 0.588 0.059-0.235 0.118-0.706 0.294-1.294l1.118-3.588h1.294l-1.941 5.941z"></path>
<path class="path15" d="M37.471 13.118h-2.176v1.294h2v1.059h-2v1.529h2.176v1.059h-3.471v-6h3.471v1.059z"></path>
</symbol>
<symbol id="logo-black" viewBox="0 0 71 32">
<path class="path1" d="M22.963 4.134c-0.307 0.051-0.627 0.102-0.934 0.166-0.461 0.090-0.909 0.179-1.357 0.282s-0.883 0.205-1.318 0.307c-0.435 0.102-0.87 0.205-1.28 0.32-0.422 0.115-0.832 0.218-1.242 0.333-0.41 0.102-0.806 0.23-1.203 0.358-0.384 0.128-0.781 0.23-1.152 0.358s-0.742 0.256-1.101 0.371c-0.179 0.064-0.358 0.128-0.538 0.179-0.179 0.064-0.346 0.128-0.512 0.192-0.346 0.128-0.678 0.243-0.998 0.371-0.32 0.115-0.627 0.256-0.934 0.384s-0.589 0.256-0.883 0.371c-1.114 0.499-2.086 0.96-2.867 1.37-0.794 0.384-1.382 0.742-1.805 0.973-0.41 0.23-0.627 0.358-0.627 0.358s0.23-0.102 0.653-0.294c0.218-0.102 0.474-0.218 0.781-0.358 0.077-0.038 0.154-0.077 0.243-0.115s0.166-0.077 0.256-0.115c0.179-0.077 0.371-0.154 0.576-0.243 0.806-0.346 1.792-0.73 2.944-1.152 0.282-0.102 0.589-0.205 0.896-0.307s0.614-0.218 0.947-0.32c0.32-0.102 0.666-0.218 0.998-0.32 0.166-0.051 0.346-0.115 0.525-0.166s0.358-0.102 0.538-0.154 0.73-0.205 1.101-0.32c0.371-0.115 0.768-0.205 1.152-0.307 0.397-0.102 0.794-0.218 1.19-0.307 0.41-0.090 0.819-0.192 1.242-0.282 0.422-0.102 0.845-0.179 1.28-0.269s0.87-0.179 1.318-0.256c0.896-0.154 1.792-0.333 2.726-0.448 0.013 0 0.013 0 0.026 0l-0.64-0.96z"></path>
<path class="path2" d="M65.728 10.47c-0.41-0.23-0.998-0.576-1.792-0.973-0.781-0.41-1.754-0.87-2.88-1.357-0.282-0.115-0.576-0.243-0.883-0.371s-0.614-0.256-0.934-0.384c-0.32-0.128-0.653-0.243-0.998-0.371-0.166-0.064-0.346-0.128-0.512-0.192-0.179-0.064-0.358-0.115-0.538-0.179-0.358-0.128-0.73-0.243-1.101-0.371s-0.755-0.243-1.152-0.358c-0.397-0.115-0.794-0.243-1.203-0.358s-0.819-0.218-1.242-0.333c-0.422-0.115-0.845-0.218-1.28-0.32s-0.87-0.218-1.318-0.307c-0.448-0.090-0.896-0.192-1.357-0.282-0.307-0.064-0.614-0.115-0.934-0.166l-0.64 0.947c0.013 0 0.013 0 0.026 0 0.934 0.128 1.83 0.294 2.726 0.448 0.448 0.077 0.883 0.179 1.318 0.256 0.435 0.090 0.858 0.166 1.28 0.269s0.832 0.192 1.242 0.282c0.41 0.090 0.806 0.205 1.19 0.307 0.397 0.102 0.781 0.192 1.152 0.307 0.371 0.102 0.742 0.218 1.101 0.32 0.179 0.051 0.358 0.102 0.538 0.154s0.346 0.115 0.525 0.166 0.678 0.218 0.998 0.32c0.333 0.102 0.64 0.218 0.947 0.32s0.602 0.218 0.896 0.307c1.139 0.422 2.138 0.806 2.944 1.152 0.205 0.090 0.397 0.166 0.576 0.243 0.090 0.038 0.179 0.077 0.256 0.115s0.166 0.077 0.243 0.115c0.307 0.141 0.576 0.256 0.781 0.358 0.422 0.192 0.653 0.294 0.653 0.294s-0.218-0.128-0.627-0.358z"></path>
<path class="path3" d="M12.813 23.206l-3.085-10.752 1.83-0.525c1.229-0.346 2.522 0.371 2.867 1.587l0.384 1.318c0.218 0.742 0.026 1.523-0.422 2.086 0.678 0.256 1.242 0.794 1.459 1.549l0.384 1.344c0.346 1.229-0.371 2.522-1.587 2.867l-1.83 0.525zM12.979 16.883c0.781-0.218 1.229-1.024 0.998-1.805l-0.384-1.318c-0.218-0.781-1.024-1.229-1.805-0.998l-0.998 0.282 1.178 4.122 1.011-0.282zM15.027 18.714c-0.218-0.781-1.024-1.229-1.805-0.998l-0.998 0.282 1.19 4.147 0.998-0.282c0.781-0.218 1.229-1.024 0.998-1.805l-0.384-1.344z"></path>
<path class="path4" d="M22.157 20.941l-0.845 0.166-1.011-2.726-2.227 0.448 0.141 2.893-0.845 0.166-0.55-11.302 1.434-0.294 3.904 10.65zM18.048 17.971l1.971-0.397-2.253-6.17-0.038 0.013 0.32 6.554z"></path>
<path class="path5" d="M25.382 13.018l-0.23-1.741c-0.090-0.704-0.742-1.203-1.446-1.114s-1.203 0.742-1.114 1.446l0.922 7.155c0.090 0.704 0.742 1.203 1.446 1.114s1.203-0.742 1.114-1.446l-0.192-1.51 0.858-0.115 0.192 1.51c0.154 1.178-0.678 2.266-1.856 2.406-1.178 0.154-2.266-0.678-2.406-1.856l-0.922-7.155c-0.154-1.178 0.678-2.266 1.856-2.406 1.178-0.154 2.266 0.678 2.406 1.856l0.218 1.638-0.845 0.218z"></path>
<path class="path6" d="M27.712 9.024l0.858-0.051 0.307 5.146 0.832-0.051 1.562-5.261 0.858-0.051-1.715 5.696 2.394 5.466-0.858 0.051-2.176-5.043-0.832 0.051 0.307 5.158-0.858 0.051-0.678-11.162z"></path>
<path class="path7" d="M34.56 15.040l-0.038 4.877-0.858-0.013 0.090-11.187 1.907 0.013c1.28 0.013 2.317 1.062 2.304 2.342l-0.013 1.677c-0.013 1.28-1.062 2.317-2.342 2.304l-1.050-0.013zM35.61 14.195c0.806 0.013 1.459-0.64 1.472-1.446l0.013-1.677c0.013-0.806-0.64-1.459-1.446-1.472l-1.050-0.013-0.038 4.595 1.050 0.013z"></path>
<path class="path8" d="M42.88 20.237l-0.858-0.051-0.269-2.893-2.266-0.141-0.614 2.829-0.858-0.051 2.406-11.059 1.459 0.090 0.998 11.277zM39.68 16.294l1.997 0.128-0.576-6.541h-0.038l-1.382 6.413z"></path>
<path class="path9" d="M48.038 13.389l0.218-1.741c0.090-0.704-0.41-1.357-1.114-1.446s-1.357 0.41-1.446 1.114l-0.934 7.142c-0.090 0.704 0.41 1.357 1.114 1.446s1.357-0.41 1.446-1.114l0.192-1.51 0.858 0.115-0.192 1.51c-0.154 1.178-1.229 2.010-2.419 1.856-1.178-0.154-2.010-1.229-1.856-2.419l0.934-7.142c0.154-1.178 1.229-2.010 2.419-1.856 1.178 0.154 2.010 1.229 1.856 2.419l-0.218 1.638-0.858-0.013z"></path>
<path class="path10" d="M51.354 10.125l0.845 0.179-1.037 5.043 0.806 0.166 2.867-4.672 0.845 0.166-3.136 5.056 0.883 5.901-0.845-0.179-0.794-5.44-0.806-0.166-1.037 5.069-0.845-0.179 2.253-10.944z"></path>
<path class="path11" d="M56.346 15.45c0 0-0.307-0.717-0.090-1.472l0.205-0.717c0.333-1.152 1.523-1.805 2.662-1.472 1.152 0.333 1.805 1.523 1.472 2.662l-0.384 1.331-0.858-0.141 0.41-1.434c0.192-0.678-0.205-1.408-0.883-1.6s-1.408 0.205-1.6 0.883l-0.205 0.717c-0.128 0.461 0.051 0.883 0.051 0.883l1.664 3.738c0 0 0.32 0.73 0.102 1.51l-0.294 1.037c-0.333 1.152-1.523 1.805-2.662 1.472-1.152-0.333-1.805-1.523-1.472-2.662l0.461-1.574 0.858 0.141-0.486 1.677c-0.192 0.678 0.205 1.408 0.883 1.6s1.408-0.205 1.6-0.883l0.294-1.037c0.128-0.461-0.064-0.922-0.064-0.922l-1.664-3.738z"></path>
<path class="path12" d="M16.474 30.579v-3.661c0.141-0.026 0.358-0.064 0.64-0.090 0.294-0.026 0.563-0.038 0.832-0.038 0.538 0 0.922 0.090 1.152 0.256 0.23 0.179 0.346 0.448 0.346 0.832v2.688h-2.97zM18.573 29.901v-2.022c0-0.179-0.064-0.294-0.205-0.346-0.115-0.051-0.294-0.077-0.525-0.077-0.128 0-0.294 0.013-0.474 0.026v2.419h1.203z"></path>
<path class="path13" d="M20.326 29.312v-2.47h0.883v1.728l-0.589 0.742h-0.294z"></path>
<path class="path14" d="M23.91 26.79c0.307 0 0.55 0.064 0.73 0.179 0.371 0.23 0.563 0.819 0.563 1.754 0 0.614-0.141 1.101-0.41 1.421-0.282 0.333-0.678 0.499-1.19 0.499-0.218 0-0.41-0.038-0.602-0.128-0.179-0.090-0.346-0.205-0.486-0.371-0.141-0.154-0.243-0.358-0.333-0.602-0.077-0.243-0.115-0.525-0.115-0.819v-1.856h0.883v1.856c0 0.41 0.051 0.704 0.166 0.909 0.102 0.205 0.282 0.307 0.512 0.307s0.397-0.090 0.512-0.282c0.115-0.192 0.166-0.499 0.166-0.922 0-0.41-0.026-0.717-0.090-0.896-0.051-0.166-0.154-0.256-0.307-0.294-0.064-0.013-0.154-0.026-0.256-0.026l-0.179 0.013v-0.653c0.115-0.064 0.269-0.090 0.435-0.090z"></path>
<path class="path15" d="M26.803 30.579h-0.883v-3.725h0.883v3.725z"></path>
<path class="path16" d="M29.952 30.477v0.102h-0.87v-0.102c0-0.154 0.026-0.371 0.077-0.64s0.115-0.512 0.179-0.717l0.576-1.6h-2.176v-0.678h3.149v0.538l-0.627 1.702c-0.218 0.538-0.307 1.011-0.307 1.395zM28.544 32h-0.819v-3.661h0.819v3.661z"></path>
<path class="path17" d="M32.128 26.842h1.958v0.576l-0.512 1.766-0.307 1.382h-0.858l0.307-1.382 0.474-1.664h-1.958v-1.446h0.883v0.768z"></path>
<path class="path18" d="M34.701 29.312v-2.47h0.883v1.728l-0.589 0.742h-0.294z"></path>
<path class="path19" d="M37.325 30.579h-0.883v-3.725h0.883v3.725z"></path>
<path class="path20" d="M39.782 30.579v-3.661c0.141-0.026 0.358-0.064 0.64-0.090 0.294-0.026 0.563-0.038 0.832-0.038 0.538 0 0.922 0.090 1.152 0.256 0.23 0.179 0.346 0.448 0.346 0.832v2.688h-2.97zM41.882 29.901v-2.022c0-0.179-0.064-0.294-0.205-0.346-0.115-0.051-0.294-0.077-0.525-0.077-0.128 0-0.294 0.013-0.474 0.026v2.419h1.203z"></path>
<path class="path21" d="M43.635 29.312v-2.47h0.883v1.728l-0.589 0.742h-0.294z"></path>
<path class="path22" d="M47.603 30.477v0.102h-0.87v-0.102c0-0.154 0.026-0.371 0.077-0.64s0.115-0.512 0.179-0.717l0.576-1.6h-2.176v-0.678h3.149v0.538l-0.627 1.702c-0.205 0.538-0.307 1.011-0.307 1.395zM46.208 32h-0.819v-3.661h0.819v3.661z"></path>
<path class="path23" d="M49.139 29.312v-2.47h0.883v1.728l-0.589 0.742h-0.294z"></path>
<path class="path24" d="M51.494 30.579c-0.128 0.038-0.282 0.064-0.435 0.064s-0.307-0.026-0.435-0.077v-0.666c0.128 0.038 0.23 0.051 0.307 0.051s0.128-0.013 0.179-0.038c0.051-0.026 0.077-0.064 0.102-0.115 0.038-0.090 0.064-0.192 0.064-0.307v-1.933l-0.422 0.038v-0.666c0.589-0.077 1.178-0.128 1.766-0.128 0.435 0 0.755 0.051 0.973 0.166 0.115 0.051 0.205 0.115 0.269 0.192s0.128 0.166 0.166 0.269c0.038 0.102 0.064 0.218 0.077 0.333s0.026 0.243 0.026 0.397v2.432h-0.883v-2.445c0-0.448-0.243-0.666-0.73-0.666-0.102 0-0.23 0-0.358 0.013v1.997c0 0.448-0.115 0.755-0.333 0.947-0.090 0.038-0.205 0.102-0.333 0.141z"></path>
<path class="path25" d="M13.632 30.054l-12.019-1.075 12.019-1.075c0.627-0.051 1.178 0.448 1.178 1.075v0c0 0.64-0.538 1.139-1.178 1.075z"></path>
<path class="path26" d="M56.947 27.904l12.019 1.075-12.019 1.075c-0.627 0.051-1.178-0.448-1.178-1.075v0c0-0.64 0.538-1.139 1.178-1.075z"></path>
<path class="path27" d="M2.573 16.922l2.227 2.509 2.995-1.485-1.69 2.88 2.342 2.394-3.277-0.717-1.549 2.97-0.32-3.341-3.302-0.55 3.072-1.344z"></path>
<path class="path28" d="M68.006 16.922l-2.227 2.509-2.995-1.485 1.702 2.88-2.342 2.394 3.264-0.717 1.549 2.97 0.32-3.341 3.302-0.55-3.059-1.344z"></path>
<path class="path29" d="M35.29 0l0.717 2.381 2.483-0.064-2.048 1.421 0.819 2.342-1.971-1.51-1.971 1.51 0.819-2.342-2.048-1.421 2.496 0.064z"></path>
<path class="path30" d="M26.675 2.227l0.678 1.728 1.843-0.218-1.421 1.178 0.755 1.69-1.562-0.986-1.357 1.242 0.461-1.792-1.613-0.909 1.843-0.115z"></path>
<path class="path31" d="M43.904 2.227l-0.678 1.728-1.843-0.218 1.434 1.178-0.768 1.69 1.562-0.986 1.37 1.242-0.461-1.792 1.6-0.909-1.843-0.115z"></path>
</symbol>
<symbol id="pvc" viewBox="0 0 58 32">
<path class="path1" d="M39.636 10.109c-0.364 0.218-0.655 0.364-1.018 0.509 1.018-3.418 1.964-6.764 2.982-10.182 0 0 0.073 0 0.073 0 0.945 3.345 1.964 6.691 2.909 10.109-0.364-0.145-0.655-0.291-1.091-0.509 0.655 1.818 1.236 3.564 1.818 5.455-0.873-0.509-1.6-1.018-2.327-1.382-0.582-0.291-0.727-0.727-0.8-1.382-0.145-2.182-0.291-4.436-0.436-6.618 0-0.218-0.073-0.509-0.073-0.727 0 6.545 0 13.091 0 19.709 0.218 0 0.364 0 0.509 0 2.036 0 4.073 0 6.109 0 0.945 0 1.164-0.218 1.164-1.164 0-0.291 0-0.582 0-0.873 0-0.509-0.218-0.8-0.727-0.8-1.309 0-2.545 0-3.927 0 0 0.582 0 1.091 0 1.673-0.727 0-1.382 0-2.109 0 0-0.945 0-1.964 0-2.909 0.145 0 0.218 0 0.364 0 2.036 0 4 0 6.036 0 0.436 0 0.945 0.073 1.382 0.218 0.8 0.218 1.164 0.655 1.164 1.527 0 0.218 0 0.509 0 0.8 0.145-0.073 0.291-0.145 0.436-0.218 1.091-0.727 2.109-1.382 3.2-2.036 0.218-0.145 0.436-0.218 0.655-0.218 0.727 0 1.527 0 2.327 0.073-1.309 0.873-2.545 1.673-3.927 2.618 1.309 0.873 2.618 1.745 3.927 2.618 0 0 0 0.073 0 0.073-0.509 0-1.018-0.073-1.455 0-0.8 0.073-1.455-0.145-2.036-0.582-0.8-0.582-1.673-1.164-2.473-1.673-0.145-0.073-0.218-0.145-0.436-0.291 0 0.291 0 0.509 0 0.655 0 1.164-0.436 1.673-1.6 1.818-0.436 0.073-0.8 0.073-1.236 0.073-2.764 0-5.527 0-8.291 0-0.073 0-0.145 0-0.291 0 0.073-4.073 0.145-8.218 0.218-12.364-0.873 0.436-1.745 0.873-2.691 1.382 0.436-1.745 1.018-3.491 1.673-5.382z"></path>
<path class="path2" d="M0.291 0.291c2.473 0 4.945 0 7.418 0 0.509 0 1.018 0.218 1.455 0.364 1.091 0.436 1.818 1.236 1.891 2.4 0.145 1.164 0.145 2.327 0.073 3.491-0.145 1.745-1.164 2.764-2.982 3.127-1.018 0.145-2.036 0.145-3.055 0.218-0.509 0-0.945 0-1.527 0 0 0.655 0 1.309 0 1.964s0 1.236 0 1.891c0 0.145-0.145 0.291-0.218 0.291-1.018 0-2.036 0-3.055 0 0-4.655 0-9.236 0-13.745zM3.564 7.055c1.091 0 2.182 0.073 3.2 0 0.655-0.073 1.018-0.436 1.018-1.091 0.073-0.582 0.073-1.236 0-1.818-0.073-0.655-0.436-1.018-1.164-1.091-0.8-0.073-1.6 0-2.4 0-0.218 0-0.436 0-0.727 0 0.073 1.309 0.073 2.691 0.073 4z"></path>
<path class="path3" d="M11.709 0.218c1.164 0 2.255 0 3.345 0 1.018 3.564 2.036 7.2 3.055 10.764 0 0 0.073 0 0.073 0 0.073-0.218 0.145-0.436 0.218-0.655 0.945-3.273 1.818-6.473 2.764-9.745 0.073-0.291 0.218-0.436 0.582-0.436 0.945 0 1.964 0 2.982 0-0.291 0.945-0.582 1.818-0.8 2.764-1.091 3.564-2.109 7.055-3.2 10.618-0.145 0.364-0.291 0.509-0.655 0.509-1.309 0-2.545 0-3.855 0-0.291 0-0.436-0.073-0.509-0.364-1.309-4.436-2.618-8.8-3.927-13.236 0-0.073 0-0.145-0.073-0.218z"></path>
<path class="path4" d="M35.491 0.436c-0.145 0.8-0.291 1.6-0.436 2.4 0 0.073-0.073 0.145-0.073 0.218-1.091-0.073-2.255-0.145-3.345-0.218-0.509 0-1.018 0.073-1.455 0.145-0.582 0.145-0.873 0.509-0.945 1.091-0.073 0.218-0.073 0.509-0.073 0.727 0 1.527 0 3.127 0 4.655 0 1.455 0.582 1.964 1.964 1.964 1.309 0 2.545-0.145 3.927-0.218 0.145 0.8 0.291 1.673 0.436 2.691-0.727 0.073-1.382 0.218-2.036 0.291-1.382 0.145-2.691 0.218-4.073-0.073-1.818-0.364-3.491-1.455-3.491-3.855-0.073-2.036-0.073-4.073 0-6.109 0.145-2.327 1.236-3.491 3.491-4 1.455-0.291 4.582-0.145 6.109 0.291z"></path>
<path class="path5" d="M14.4 22.545c0.945 1.309 1.818 2.691 2.836 4.073-0.582 0-1.091 0-1.527 0-0.145 0-0.218-0.145-0.291-0.291-0.8-1.091-1.6-2.255-2.327-3.345-0.145-0.218-0.364-0.364-0.655-0.291-0.727 0-1.527 0-2.327 0 0 1.309 0 2.618 0 3.927-0.509 0-0.945 0-1.455 0 0-3.636 0-7.273 0-11.055 0.291 0 0.509 0 0.727 0 1.382 0 2.764 0 4.073 0.073 1.745 0.073 2.545 1.018 2.545 2.764 0 0.727 0 1.382-0.073 2.109-0.073 0.945-0.582 1.6-1.455 1.891-0.073 0-0.073 0.073-0.145 0.073 0.145 0 0.145 0 0.073 0.073zM10.109 21.309c1.236 0 2.327 0 3.491 0 0.582 0 0.945-0.364 1.018-0.945 0.073-0.8 0.073-1.6 0-2.4 0-0.509-0.364-0.873-0.8-0.945-1.236-0.073-2.473-0.145-3.709-0.145 0 1.527 0 2.982 0 4.436z"></path>
<path class="path6" d="M20.655 25.382c1.673 0 3.345 0 5.091 0 0 0.436 0 0.8 0 1.236-2.182 0-4.291 0-6.545 0 0-3.636 0-7.273 0-10.982 0.145 0 0.291 0 0.436 0 1.818 0 3.636 0 5.527 0 0.436 0 0.582 0.145 0.509 0.582 0 0.218 0 0.436 0 0.727-1.745 0-3.345 0-5.091 0 0 1.164 0 2.327 0 3.491 1.527 0 3.127 0 4.655 0 0 0.436 0 0.8 0 1.309-1.527 0-3.127 0-4.655 0 0.073 1.164 0.073 2.327 0.073 3.636z"></path>
<path class="path7" d="M34.691 15.636c0 0.436 0 0.8 0 1.236-1.673 0-3.345 0-5.018 0 0 1.164 0 2.255 0 3.491 1.527 0 3.055 0 4.655 0 0 0.436 0 0.873 0 1.309-1.527 0-3.055 0-4.655 0 0 1.236 0 2.473 0 3.709 1.673 0 3.345 0 5.018 0 0 0.436 0 0.873 0 1.236-2.109 0-4.291 0-6.473 0 0-0.145 0-0.291 0-0.436 0-3.345 0-6.764 0-10.109 0-0.364 0.073-0.509 0.436-0.509 1.891 0 3.782 0 5.673 0 0.073 0 0.218 0.073 0.364 0.073z"></path>
<path class="path8" d="M45.382 30.327c-0.218 0.291-0.436 0.582-0.727 0.945-0.655-1.455-1.236-2.764-1.818-4.218 1.527 0.218 2.909 0.436 4.436 0.655-0.291 0.364-0.436 0.655-0.727 1.018 0.873 0.727 1.891 1.164 2.982 1.236 2.4 0.291 4.364-0.582 5.818-2.545 0.145-0.218 0.364-0.364 0.655-0.291 0.582 0 1.164 0 1.745 0-1.236 3.709-7.055 6.909-12.364 3.2z"></path>
<path class="path9" d="M42.982 20.509c1.527-4.073 7.345-6.764 12.364-3.2 0.218-0.291 0.436-0.582 0.727-0.945 0.655 1.455 1.236 2.764 1.818 4.218-1.527-0.218-2.982-0.436-4.436-0.655 0.291-0.364 0.509-0.655 0.727-1.018-0.873-0.655-1.745-1.091-2.764-1.236-2.545-0.364-4.509 0.509-6.036 2.545-0.073 0.145-0.218 0.218-0.364 0.218-0.727 0.145-1.382 0.073-2.036 0.073z"></path>
<path class="path10" d="M6.545 15.636c0 0.436 0 0.8 0 1.236-1.673 0-3.418 0-5.091 0 0 1.236 0 2.473 0 3.709 1.6 0 3.127 0 4.727 0 0 0.436 0 0.8 0 1.236-1.6 0-3.127 0-4.8 0 0 1.6 0 3.2 0 4.8-0.509 0-0.945 0-1.382 0 0-3.636 0-7.273 0-10.982 2.182 0 4.364 0 6.545 0z"></path>
</symbol>
<symbol id="search" viewBox="0 0 32 32">
<path class="path1" d="M30.992 25.379l-7.388-6.189c-0.192-0.192-0.384-0.192-0.624-0.192-0.384 0-0.624 0.192-0.816 0.384-0.816 1.199-1.775 2.207-2.974 2.974-0.192 0.192-0.384 0.384-0.384 0.576s0 0.576 0.192 0.816l6.189 7.436c0.384 0.576 1.008 0.816 1.583 0.816 0.624 0 1.199-0.192 1.583-0.576l2.591-2.591c0.384-0.384 0.624-1.008 0.624-1.583 0.24-0.864-0.192-1.439-0.576-1.871zM23.172 11.61c0-6.429-5.181-11.61-11.562-11.61s-11.61 5.181-11.61 11.61 5.181 11.61 11.61 11.61c3.214 0 5.997-1.199 8.204-3.406 2.159-2.015 3.358-5.037 3.358-8.204zM16.983 17.175c-1.391 1.391-3.406 2.399-5.613 2.399-4.414 0-7.772-3.598-7.772-8.012s3.598-7.964 7.82-7.964c4.366 0 7.772 3.598 7.772 8.012 0.192 2.159-0.576 4.174-2.207 5.565zM11.418 4.989c-3.79 0-6.813 2.974-6.813 6.813 0 1.008 0.816 1.583 1.583 1.583 1.008 0 1.583-0.816 1.583-1.583 0-2.015 1.583-3.406 3.406-3.406 1.008 0 1.583-0.816 1.583-1.583 0.432-1.199-0.384-1.823-1.343-1.823z"></path>
</symbol>
<symbol id="sign-up" viewBox="0 0 32 32">
<path class="path1" d="M27.851 10.718v21.282h-27.851v-28.005h21.935l-2.881 3.035h-16.327v22.089h22.089v-15.366z"></path>
<path class="path2" d="M31.385 0.96c-1.268-1.268-3.534-1.268-4.802 0.154l-14.598 14.559 4.802 4.802 14.559-14.559c1.306-1.46 1.306-3.688 0.038-4.956z"></path>
<path class="path3" d="M10.872 16.634l-2.881 6.876 0.807 0.807 6.876-2.881z"></path>
</symbol>
<symbol id="skateboard" viewBox="0 0 18 32">
<path class="path1" d="M3.794 9.966c0 0.137-0.32 0.32-0.457 0.503-0.411 0.503-0.777 1.051-1.051 1.646s-0.457 1.234-0.503 1.874l-0.046 2.057c-0.046 1.371-0.091 2.743-0.183 4.114-0.091-1.371-0.137-2.743-0.183-4.16l-0.046-2.057c0-0.731 0.183-1.463 0.457-2.103 0.274-0.686 0.64-1.28 1.097-1.829 0.229-0.274 0.457-0.549 0.731-0.777 0.091-0.046 0.183-0.091 0.183-0.137v-1.691c-1.463 0.594-3.2 3.017-3.2 5.211v6.903c-0.32 0.091-0.594 0.229-0.594 0.366v6.491c0 0.183 0.274 0.366 0.731 0.366 0 0.046-0.046 0.046-0.091 0.091 0.366 1.28 1.417 1.097 2.743 1.097h0.411v-17.966z"></path>
<path class="path2" d="M17.371 19.52c0 0.046 0.046 0.046 0 0 0 0.046 0.091 0.046 0.091 0.046v-6.949c0-2.194-1.737-4.571-3.474-5.211v1.691c0.274 0.046 0.137 0.091 0.183 0.091 0.274 0.229 0.549 0.503 0.823 0.777 0.457 0.549 0.869 1.189 1.143 1.829 0.274 0.686 0.457 1.371 0.457 2.103l-0.137 2.149c-0.046 1.371-0.091 2.743-0.183 4.16-0.091-1.371-0.137-2.743-0.183-4.16l-0.091-2.103c-0.046-0.64-0.229-1.28-0.503-1.874s-0.686-1.143-1.097-1.646c-0.137-0.137-0.183-0.32-0.457-0.457v17.966h0.457c1.326 0 2.423 0.183 2.789-1.097 0-0.046 0-0.046-0.046-0.091 0.457 0 0.869-0.137 0.869-0.366v-6.446c0.046-0.183-0.274-0.366-0.64-0.411z"></path>
<path class="path3" d="M4.526 4.389v0c0 0.091 0.091 0.091 0.137 0.046 0.183-0.366 0.594-0.594 1.051-0.594 0.64 0 1.143 0.457 1.189 1.051 0 0.046 0.046 0.091 0.091 0.046l1.371-0.366c0.366-0.091 0.731-0.091 1.051 0l1.371 0.366c0.046 0 0.091 0 0.091-0.046 0.046-0.594 0.594-1.051 1.189-1.051 0.457 0 0.823 0.229 1.051 0.594 0.046 0.046 0.137 0.046 0.137-0.046v0c0-2.423-1.966-4.389-4.389-4.389v0c-2.377 0-4.343 1.966-4.343 4.389z"></path>
<path class="path4" d="M12.16 27.52c-0.64 0-1.143-0.457-1.189-1.051 0-0.046-0.046-0.091-0.091-0.046l-1.371 0.366c-0.366 0.091-0.731 0.091-1.051 0l-1.371-0.366c-0.046 0-0.091 0-0.091 0.046-0.046 0.594-0.594 1.051-1.189 1.051-0.457 0-0.823-0.229-1.051-0.594-0.046-0.046-0.137-0.046-0.137 0.046v0.686c0 2.423 1.966 4.389 4.389 4.389v0c2.423 0 4.389-1.966 4.389-4.389v-0.686c0-0.091-0.091-0.091-0.137-0.046-0.274 0.32-0.686 0.594-1.097 0.594z"></path>
<path class="path5" d="M6.446 26.331v-0.457c0-0.091 0.091-0.137 0.137-0.091l1.966 0.503c0.274 0.091 0.549 0.091 0.823 0l1.966-0.503c0.091 0 0.137 0.046 0.137 0.091v0.411c0 0.411 0.32 0.731 0.686 0.731 0.411 0 0.731-0.32 0.731-0.731v-1.6c0-0.411-0.32-0.731-0.686-0.731-0.411 0-0.731 0.32-0.731 0.731v0.457c0 0.091-0.091 0.137-0.137 0.091l-1.783-0.457c0-0.503-0.274-1.554-0.549-1.554-0.32 0-0.549 1.051-0.549 1.554l-1.783 0.457c-0.091 0-0.137-0.046-0.137-0.091v-0.457c0-0.411-0.32-0.731-0.731-0.731v0c-0.411 0-0.731 0.32-0.731 0.731v1.691c0 0.411 0.32 0.731 0.731 0.731v0c0.32-0.091 0.64-0.411 0.64-0.777zM8.914 24.549c-0.137 0-0.274-0.183-0.274-0.411s0.137-0.411 0.274-0.411 0.274 0.183 0.274 0.411c0.046 0.229-0.091 0.411-0.274 0.411z"></path>
<path class="path6" d="M5.714 4.297v0c-0.411 0-0.731 0.32-0.731 0.731v1.691c0 0.411 0.32 0.731 0.731 0.731v0c0.411 0 0.731-0.32 0.731-0.731v-0.457c0-0.091 0.091-0.137 0.137-0.091l1.783 0.457c0 0.503 0.274 1.554 0.549 1.554 0.32 0 0.549-1.051 0.549-1.554l1.783-0.457c0.091 0 0.137 0.046 0.137 0.091v0.411c0 0.411 0.32 0.731 0.686 0.731 0.411 0 0.731-0.32 0.731-0.731v-1.646c0-0.411-0.32-0.731-0.686-0.731-0.411 0-0.731 0.32-0.731 0.731v0.457c0 0.091-0.091 0.137-0.137 0.091l-1.966-0.503c-0.274-0.091-0.549-0.091-0.823 0l-1.966 0.503c-0.091 0-0.137-0.046-0.137-0.091v-0.457c0.091-0.411-0.229-0.731-0.64-0.731zM9.234 7.177c0 0.229-0.137 0.411-0.274 0.411s-0.274-0.183-0.274-0.411c0-0.229 0.137-0.411 0.274-0.411s0.274 0.183 0.274 0.411z"></path>
<path class="path7" d="M9.051 14.354c1.874 0 3.154 0.229 4.343 0.503v-7.543c0-0.091-0.137-0.091-0.183-0.046-0.183 0.366-0.594 0.594-1.051 0.594-0.64 0-1.143-0.457-1.189-1.051 0-0.046-0.046-0.091-0.091-0.046l-0.869 0.229c-0.046 0-0.046 0.046-0.046 0.046-0.091 0.594-0.32 1.6-1.006 1.6s-0.914-1.006-1.006-1.6c0-0.046-0.046-0.046-0.046-0.046l-0.869-0.229c-0.046 0-0.091 0-0.091 0.046-0.046 0.594-0.594 1.051-1.189 1.051-0.457 0-0.777-0.229-1.006-0.594-0.046-0.046-0.091-0.046-0.091 0.046v7.589c1.143-0.32 2.469-0.549 4.389-0.549z"></path>
<path class="path8" d="M9.051 16.777c-2.331 0-3.794 0.366-4.389 0.686v6.583c0 0.091 0.046 0.091 0.091 0.046 0.183-0.366 0.549-0.594 1.006-0.594 0.64 0 1.097 0.457 1.189 1.051 0 0.046 0.046 0.091 0.091 0.046l0.869-0.229c0.046 0 0.046-0.046 0.046-0.046 0.091-0.594 0.32-1.6 1.006-1.6s0.914 1.006 1.006 1.6c0 0.046 0.046 0.046 0.046 0.046l0.869 0.229c0.046 0 0.091 0 0.091-0.046 0.046-0.594 0.594-1.051 1.189-1.051 0.457 0 0.869 0.229 1.051 0.594 0.046 0.046 0.183 0.046 0.183-0.046v-6.629c-0.869-0.32-2.103-0.64-4.343-0.64z"></path>
<path class="path9" d="M14.629 17.509c0 0-1.189-1.371-5.669-1.371s-5.669 1.326-5.669 1.371l-0.96-0.731c0.137-0.183 1.509-1.829 6.629-1.829s6.491 1.646 6.629 1.829l-0.96 0.731z"></path>
</symbol>
<symbol id="user" viewBox="0 0 46 32">
<path class="path1" d="M15.673 0c3.842 0 7.030 3.534 7.030 7.99 0 0.154 0 0.307 0 0.461 0.499 0.154 0.807 1.421 0.499 2.728-0.154 1.268-0.807 2.42-1.46 2.42-0.653 1.767-1.46 3.381-2.382 4.495v1.921c1.613 0 12.331 3.995 12.331 7.030v4.956h-31.693v-4.956c0-2.881 9.758-6.569 12.331-7.030v-1.613c-1.114-1.114-2.074-2.881-2.728-4.802-0.653 0-1.268-1.114-1.46-2.42-0.307-1.421 0-2.727 0.653-2.727 0-0.154 0-0.307 0-0.461-0.154-4.456 3.035-7.99 6.876-7.99v0zM35.534 29.926c0 1.114 0.96 2.074 2.074 2.074s2.074-0.96 2.074-2.074v-0.461h1.114c0.807 0 1.421-0.653 1.421-1.46v-0.807c0-0.807-0.653-1.46-1.421-1.46h-1.114v-1.114h1.114c0.807 0 1.421-0.653 1.421-1.421v-0.807c0-0.807-0.653-1.421-1.421-1.421h-1.114v-4.956c1.268-0.307 2.574-1.114 3.534-2.074 1.421-1.46 2.382-3.381 2.382-5.609s-0.807-4.149-2.382-5.609c-1.421-1.421-3.381-2.382-5.609-2.382s-4.149 0.96-5.609 2.382c-1.421 1.421-2.382 3.381-2.382 5.609s0.96 4.149 2.382 5.609c0.96 0.96 2.228 1.767 3.534 2.074v13.906zM40.182 5.263c0.653 0.653 1.114 1.613 1.114 2.728 0 0.96-0.499 1.921-1.114 2.728-0.653 0.653-1.613 1.114-2.727 1.114s-1.921-0.461-2.727-1.114c-0.653-0.653-1.114-1.613-1.114-2.728s0.499-1.921 1.114-2.728c0.653-0.653 1.613-1.114 2.727-1.114s2.074 0.499 2.727 1.114v0z"></path>
</symbol>
<symbol id="menu" viewBox="0 0 32 32">
<path class="path1 fill-color1" d="M0 0h32v6.4h-32v-6.4z"></path>
<path class="path2 fill-color1" d="M0 12.8h32v6.4h-32v-6.4z"></path>
<path class="path3 fill-color1" d="M0 25.6h32v6.4h-32v-6.4z"></path>
</symbol>
<symbol id="cog" viewBox="0 0 31 32">
<path class="path1" d="M28.618 19.070c-1.678-2.908-0.67-6.634 2.254-8.328l-3.144-5.446c-0.898 0.526-1.944 0.828-3.058 0.828-3.36 0-6.084-2.742-6.084-6.124h-6.29c0.008 1.044-0.252 2.102-0.812 3.070-1.678 2.908-5.412 3.896-8.34 2.212l-3.144 5.446c0.906 0.514 1.69 1.268 2.246 2.234 1.676 2.904 0.672 6.622-2.24 8.32l3.144 5.446c0.896-0.522 1.934-0.82 3.044-0.82 3.35 0 6.066 2.724 6.084 6.092h6.29c-0.002-1.034 0.258-2.080 0.812-3.038 1.676-2.904 5.4-3.894 8.326-2.22l3.144-5.446c-0.9-0.514-1.678-1.266-2.232-2.226zM15.438 22.48c-3.578 0-6.48-2.9-6.48-6.48s2.9-6.48 6.48-6.48c3.578 0 6.48 2.9 6.48 6.48s-2.9 6.48-6.48 6.48z"></path>
</symbol>
<symbol id="enter" viewBox="0 0 16 16">
<path class="path1" d="M6 8h-5v-2h5v-2l3 3-3 3zM16 0v13l-6 3v-3h-6v-4h1v3h5v-9l4-2h-9v4h-1v-5z"></path>
</symbol>
</defs>
</svg>
