<?xml version="1.0" encoding="utf-8"?>
<!-- Generator: Adobe Illustrator 19.1.0, SVG Export Plug-In . SVG Version: 6.00 Build 0)  -->
<svg version="1.1" id="Layer_1" xmlns="http://www.w3.org/2000/svg" xmlns:xlink="http://www.w3.org/1999/xlink" x="0px" y="0px"
	 viewBox="0 0 153.4 40" style="enable-background:new 0 0 153.4 40;" xml:space="preserve">
<style type="text/css">
	.st0{fill:#231F20;}
	.st1{fill:#FFFFFF;}
</style>
<path class="st0" d="M148.2,1.7h1.5c1,0,1.6,0.3,1.6,1.2c0,0.7-0.5,1-1.1,1.1l1.1,1.8h-0.8l-1-1.7H149v1.7h-0.8V1.7z M149,3.4h0.7
	c0.4,0,0.8-0.1,0.8-0.6c0-0.4-0.5-0.5-0.8-0.5H149V3.4z"/>
<polygon class="st0" points="0,4.1 27.1,4.1 27.1,15.3 20.2,15.3 20.2,38.8 7,38.8 7,15.3 0,15.3 "/>
<polygon class="st0" points="60.3,38.8 47.2,38.8 47.2,27 43,27 43,38.8 29.8,38.8 29.8,4.1 43,4.1 43,15.7 47.2,15.7 47.2,4.1 
	60.3,4.1 "/>
<path class="st0" d="M79.5,40c10.7,0,15.2-7.4,15.3-13c0-5.3,0-22.9,0-22.9H81.7v21.6c0,1.3-0.8,2.1-2.1,2.1c-1.3,0-2.1-0.8-2.1-2.1
	V4.1H64.3c0,0,0,17.6,0,22.9C64.3,32.6,68.9,40,79.5,40"/>
<polygon class="st0" points="98.8,4.1 111.9,4.1 111.9,27.4 119.3,27.4 119.3,4.1 142.4,4.1 142.4,13.4 132.5,13.4 132.5,16.9 
	140.3,16.9 140.3,23.6 132.5,23.6 132.5,27.4 142.4,27.4 142.4,38.8 98.8,38.8 "/>
<path class="st1" d="M104.5,34c0,1.3,0.7,1.9,2.2,1.9c1,0,2.2-0.5,2.2-1.7c0-1-0.6-1.3-1.4-1.5c-0.4-0.1-1.3-0.2-1.3-0.7
	c0-0.5,0.5-0.7,0.9-0.7c0.5,0,1,0.2,0.9,0.8h1.1c0-1.2-0.9-1.7-2-1.7c-1,0-2.1,0.5-2.1,1.6c0,0.9,0.7,1.2,1.3,1.4
	c0.7,0.2,1.3,0.3,1.3,0.8c0,0.5-0.5,0.7-1,0.7c-0.7,0-1.2-0.2-1.1-1H104.5z"/>
<polygon class="st1" points="116.8,30.5 115.6,30.5 114,34.3 114,34.3 113.8,30.5 112.7,30.5 111,34.3 111,34.3 111,30.5 
	109.8,30.5 110.2,35.8 111.3,35.8 113,32 113,32 113.1,35.8 114.3,35.8 "/>
<polygon class="st1" points="116.2,35.8 120.3,35.8 120.5,34.8 117.6,34.8 117.9,33.5 120.5,33.5 120.7,32.6 118.1,32.6 118.3,31.5 
	121.2,31.5 121.4,30.5 117.3,30.5 "/>
<path class="st1" d="M124.2,30.5h-1.9l-1.1,5.3h2.2c2,0,3.1-1.4,3.1-3.2C126.4,31.2,125.7,30.5,124.2,30.5 M123.4,34.8h-0.9l0.7-3.3
	h0.9c0.8,0,1.2,0.5,1.2,1.3C125.3,33.9,124.6,34.8,123.4,34.8"/>
<polygon class="st1" points="126.6,35.8 130.7,35.8 130.9,34.8 128,34.8 128.3,33.5 130.9,33.5 131.1,32.6 128.5,32.6 128.7,31.5 
	131.6,31.5 131.8,30.5 127.8,30.5 "/>
<polygon class="st1" points="131.6,35.8 132.7,35.8 133.4,32 133.4,32 134.9,35.8 136.1,35.8 137.2,30.5 136.1,30.5 135.4,34.2 
	135.3,34.2 133.9,30.5 132.7,30.5 "/>
<path class="st0" d="M149.7,0c-2.1,0-3.8,1.7-3.8,3.8c0,2.1,1.7,3.8,3.8,3.8c2.1,0,3.8-1.7,3.8-3.8C153.4,1.7,151.7,0,149.7,0
	 M149.7,6.6c-1.6,0-2.8-1.3-2.8-2.8c0-1.6,1.3-2.8,2.8-2.8c1.6,0,2.8,1.3,2.8,2.8C152.5,5.3,151.2,6.6,149.7,6.6"/>
</svg>
